<?xml version="1.0" encoding="utf-8"?>
<COLLADA xmlns="http://www.collada.org/2005/11/COLLADASchema" version="1.4.1" xmlns:xsi="http://www.w3.org/2001/XMLSchema-instance">
  <asset>
    <contributor>
      <author>Blockbench user</author>
      <authoring_tool>Blockbench</authoring_tool>
    </contributor>
    <created>2023-10-21T02:45:12.012Z</created>
    <modified>2023-10-21T02:45:12.012Z</modified>
    <unit name="meter" meter="1.0"/>
    <up_axis>Y_UP</up_axis>
  </asset>
  <library_effects>
    <effect id="Material_0-effect">
      <profile_COMMON>
        <newparam sid="Image_0-surface">
          <surface type="2D">
            <init_from>Image_0</init_from>
          </surface>
        </newparam>
        <newparam sid="Image_0-sampler">
          <sampler2D>
            <source>Image_0-surface</source>
          </sampler2D>
        </newparam>
        <technique sid="common">
          <lambert>
            <emission>
              <color sid="emission">0 0 0 1</color>
            </emission>
            <diffuse>
              <texture texture="Image_0-sampler" texcoord="UVMap"/>
            </diffuse>
            <index_of_refraction>
              <float sid="ior">1.45</float>
            </index_of_refraction>
          </lambert>
        </technique>
      </profile_COMMON>
    </effect>
    <effect id="Material_1-effect">
      <profile_COMMON>
        <newparam sid="Image_1-surface">
          <surface type="2D">
            <init_from>Image_1</init_from>
          </surface>
        </newparam>
        <newparam sid="Image_1-sampler">
          <sampler2D>
            <source>Image_1-surface</source>
          </sampler2D>
        </newparam>
        <technique sid="common">
          <lambert>
            <emission>
              <color sid="emission">0 0 0 1</color>
            </emission>
            <diffuse>
              <texture texture="Image_1-sampler" texcoord="UVMap"/>
            </diffuse>
            <index_of_refraction>
              <float sid="ior">1.45</float>
            </index_of_refraction>
          </lambert>
        </technique>
      </profile_COMMON>
    </effect>
  </library_effects>
  <library_images>
    <image id="Image_0" name="Image_0">
      <init_from>texture.png</init_from>
    </image>
    <image id="Image_1" name="Image_1">
      <init_from>texture.png</init_from>
    </image>
  </library_images>
  <library_materials>
    <material id="Material_0-material" name="Material_0">
      <instance_effect url="#Material_0-effect"/>
    </material>
    <material id="Material_1-material" name="Material_1">
      <instance_effect url="#Material_1-effect"/>
    </material>
  </library_materials>
  <library_geometries>
    <geometry id="6f8d7a13-075e-3912-83ba-936bb74a02ba-mesh" name="sphere">
      <mesh>
        <source id="6f8d7a13-075e-3912-83ba-936bb74a02ba-mesh-positions">
          <float_array id="6f8d7a13-075e-3912-83ba-936bb74a02ba-mesh-positions-array" count="186">0 0.09375 0 0 0.65625 0 0.03768 0.61857 0.140625 0.065264 0.515625 0.24357 0.075361 0.375 0.28125 0.065264 0.234375 0.24357 0.03768 0.13143 0.140625 0.102945 0.61857 0.102945 0.178305 0.515625 0.178305 0.205889 0.375 0.205889 0.178305 0.234375 0.178305 0.102945 0.13143 0.102945 0.140625 0.61857 0.03768 0.24357 0.515625 0.065264 0.28125 0.375 0.075361 0.24357 0.234375 0.065264 0.140625 0.13143 0.03768 0.140625 0.61857 -0.03768 0.24357 0.515625 -0.065264 0.28125 0.375 -0.075361 0.24357 0.234375 -0.065264 0.140625 0.13143 -0.03768 0.102945 0.61857 -0.102945 0.178305 0.515625 -0.178305 0.205889 0.375 -0.205889 0.178305 0.234375 -0.178305 0.102945 0.13143 -0.102945 0.03768 0.61857 -0.140625 0.065264 0.515625 -0.24357 0.075361 0.375 -0.28125 0.065264 0.234375 -0.24357 0.03768 0.13143 -0.140625 -0.03768 0.61857 -0.140625 -0.065264 0.515625 -0.24357 -0.075361 0.375 -0.28125 -0.065264 0.234375 -0.24357 -0.03768 0.13143 -0.140625 -0.102945 0.61857 -0.102945 -0.178305 0.515625 -0.178305 -0.205889 0.375 -0.205889 -0.178305 0.234375 -0.178305 -0.102945 0.13143 -0.102945 -0.140625 0.61857 -0.03768 -0.24357 0.515625 -0.065264 -0.28125 0.375 -0.075361 -0.24357 0.234375 -0.065264 -0.140625 0.13143 -0.03768 -0.140625 0.61857 0.03768 -0.24357 0.515625 0.065264 -0.28125 0.375 0.075361 -0.24357 0.234375 0.065264 -0.140625 0.13143 0.03768 -0.102945 0.61857 0.102945 -0.178305 0.515625 0.178305 -0.205889 0.375 0.205889 -0.178305 0.234375 0.178305 -0.102945 0.13143 0.102945 -0.03768 0.61857 0.140625 -0.065264 0.515625 0.24357 -0.075361 0.375 0.28125 -0.065264 0.234375 0.24357 -0.03768 0.13143 0.140625</float_array>
          <technique_common>
            <accessor source="#6f8d7a13-075e-3912-83ba-936bb74a02ba-mesh-positions-array" count="62" stride="3">
              <param name="X" type="float"/>
              <param name="Y" type="float"/>
              <param name="Z" type="float"/>
            </accessor>
          </technique_common>
        </source>
        <source id="6f8d7a13-075e-3912-83ba-936bb74a02ba-mesh-normals">
          <float_array id="6f8d7a13-075e-3912-83ba-936bb74a02ba-mesh-normals-array" count="216">0.12941 0.965926 0.224144 0.353553 0.707107 0.612372 0.482963 0.258819 0.836516 0.482963 -0.258819 0.836516 0.353553 -0.707107 0.612372 0.12941 -0.965926 0.224144 0.224144 0.965926 0.12941 0.612372 0.707107 0.353553 0.836516 0.258819 0.482963 0.836516 -0.258819 0.482963 0.612372 -0.707107 0.353553 0.224144 -0.965926 0.12941 0.258819 0.965926 0 0.707107 0.707107 0 0.965926 0.258819 0 0.965926 -0.258819 0 0.707107 -0.707107 0 0.258819 -0.965926 0 0.224144 0.965926 -0.12941 0.612372 0.707107 -0.353553 0.836516 0.258819 -0.482963 0.836516 -0.258819 -0.482963 0.612372 -0.707107 -0.353553 0.224144 -0.965926 -0.12941 0.12941 0.965926 -0.224144 0.353553 0.707107 -0.612372 0.482963 0.258819 -0.836516 0.482963 -0.258819 -0.836516 0.353553 -0.707107 -0.612372 0.12941 -0.965926 -0.224144 0 0.965926 -0.258819 0 0.707107 -0.707107 0 0.258819 -0.965926 0 -0.258819 -0.965926 0 -0.707107 -0.707107 0 -0.965926 -0.258819 -0.12941 0.965926 -0.224144 -0.353553 0.707107 -0.612372 -0.482963 0.258819 -0.836516 -0.482963 -0.258819 -0.836516 -0.353553 -0.707107 -0.612372 -0.12941 -0.965926 -0.224144 -0.224144 0.965926 -0.12941 -0.612372 0.707107 -0.353553 -0.836516 0.258819 -0.482963 -0.836516 -0.258819 -0.482963 -0.612372 -0.707107 -0.353553 -0.224144 -0.965926 -0.12941 -0.258819 0.965926 0 -0.707107 0.707107 0 -0.965926 0.258819 0 -0.965926 -0.258819 0 -0.707107 -0.707107 0 -0.258819 -0.965926 0 -0.224144 0.965926 0.12941 -0.612372 0.707107 0.353553 -0.836516 0.258819 0.482963 -0.836516 -0.258819 0.482963 -0.612372 -0.707107 0.353553 -0.224144 -0.965926 0.12941 -0.12941 0.965926 0.224144 -0.353553 0.707107 0.612372 -0.482963 0.258819 0.836516 -0.482963 -0.258819 0.836516 -0.353553 -0.707107 0.612372 -0.12941 -0.965926 0.224144 0 0.965926 0.258819 0 0.707107 0.707107 0 0.258819 0.965926 0 -0.258819 0.965926 0 -0.707107 0.707107 0 -0.965926 0.258819</float_array>
          <technique_common>
            <accessor source="#6f8d7a13-075e-3912-83ba-936bb74a02ba-mesh-normals-array" count="72" stride="3">
              <param name="X" type="float"/>
              <param name="Y" type="float"/>
              <param name="Z" type="float"/>
            </accessor>
          </technique_common>
        </source>
        <source id="6f8d7a13-075e-3912-83ba-936bb74a02ba-mesh-map-0">
          <float_array id="6f8d7a13-075e-3912-83ba-936bb74a02ba-mesh-map-0-array" count="528">0.192599 0.836522 0.22921 0.856835 0.171665 0.917403 0.192599 0.836522 0.207924 0.755641 0.275416 0.782169 0.231566 0.851838 0.199202 0.716964 0.182491 0.63763 0.265421 0.626078 0.271027 0.706959 0.182491 0.63763 0.176884 0.556749 0.24871 0.546743 0.265421 0.626078 0.176884 0.556749 0.180904 0.474526 0.222372 0.46875 0.24871 0.546743 0.541921 0.924415 0.505309 0.944728 0.484375 0.863847 0.22921 0.856835 0.251369 0.892359 0.171665 0.917403 0.231566 0.851838 0.275416 0.782169 0.328526 0.831549 0.262228 0.880348 0.322723 0.738209 0.328329 0.657328 0.411259 0.66888 0.394548 0.748214 0.328329 0.657328 0.34504 0.577993 0.416866 0.587999 0.411259 0.66888 0.602435 0.980224 0.541921 0.924415 0.56408 0.888891 0.640815 0.918695 0.56408 0.888891 0.541921 0.924415 0.484375 0.863847 0.251369 0.892359 0.253511 0.934173 0.171665 0.917403 0.023445 0.422184 0.00812 0.341302 0.080638 0.341302 0.065313 0.422184 0.416866 0.749761 0.411259 0.66888 0.494991 0.66888 0.489384 0.749761 0.411259 0.66888 0.416866 0.587999 0.489384 0.587999 0.494991 0.66888 0.416866 0.587999 0.432191 0.507117 0.474059 0.507117 0.489384 0.587999 0.566221 0.847077 0.56408 0.888891 0.484375 0.863847 0.253511 0.934173 0.235097 0.971775 0.171665 0.917403 0.065313 0.422184 0.080638 0.341302 0.14813 0.367831 0.10428 0.4375 0.511702 0.748214 0.494991 0.66888 0.577921 0.657328 0.583527 0.738209 0.494991 0.66888 0.489384 0.587999 0.56121 0.577993 0.577921 0.657328 0.489384 0.587999 0.493404 0.505776 0.534872 0.5 0.56121 0.577993 0.547808 0.809475 0.566221 0.847077 0.484375 0.863847 0.235097 0.971775 0.200753 0.995722 0.171665 0.917403 0.308878 0.46875 0.28254 0.390757 0.354366 0.380751 0.350346 0.462974 0.28254 0.390757 0.265829 0.311422 0.348759 0.29987 0.354366 0.380751 0.265829 0.311422 0.260223 0.230541 0.332048 0.220536 0.348759 0.29987 0.635319 0.816928 0.679169 0.747259 0.718136 0.762576 0.702811 0.843457 0.513463 0.785528 0.547808 0.809475 0.484375 0.863847 0.184226 1 0.142576 0.995722 0.171665 0.917403 0.369691 0.461633 0.354366 0.380751 0.426884 0.380751 0.411559 0.461633 0.354366 0.380751 0.348759 0.29987 0.432491 0.29987 0.426884 0.380751 0.348759 0.29987 0.354366 0.218989 0.426884 0.218989 0.432491 0.29987 0.702811 0.843457 0.718136 0.762576 0.760005 0.762576 0.77533 0.843457 0.471814 0.78125 0.513463 0.785528 0.484375 0.863847 0.142576 0.995722 0.108232 0.971775 0.171665 0.917403 0.430904 0.462974 0.426884 0.380751 0.49871 0.390757 0.472372 0.46875 0.426884 0.380751 0.432491 0.29987 0.515421 0.311422 0.49871 0.390757 0.432491 0.29987 0.449202 0.220536 0.521027 0.230541 0.515421 0.311422 0.77533 0.843457 0.760005 0.762576 0.798971 0.747259 0.842822 0.816928 0.420942 0.809475 0.455287 0.785528 0.484375 0.863847 0.108232 0.971775 0.089818 0.934173 0.171665 0.917403 0.621378 0.53125 0.59504 0.453257 0.666866 0.443251 0.662846 0.525474 0.59504 0.453257 0.578329 0.373922 0.661259 0.36237 0.666866 0.443251 0.578329 0.373922 0.572723 0.293041 0.644548 0.283036 0.661259 0.36237 0.842822 0.816928 0.798971 0.747259 0.829634 0.71875 0.895931 0.767549 0.402529 0.847077 0.420942 0.809475 0.484375 0.863847 0.089818 0.934173 0.09196 0.892359 0.171665 0.917403 0.682191 0.524133 0.666866 0.443251 0.739384 0.443251 0.724059 0.524133 0.666866 0.443251 0.661259 0.36237 0.744991 0.36237 0.739384 0.443251 0.661259 0.36237 0.666866 0.281489 0.739384 0.281489 0.744991 0.36237 0.635616 0.6875 0.650941 0.59375 0.692809 0.59375 0.708134 0.6875 0.40467 0.888891 0.402529 0.847077 0.484375 0.863847 0.09196 0.892359 0.114119 0.856835 0.171665 0.917403 0.09196 0.892359 0.015224 0.862555 0.053605 0.801026 0.114119 0.856835 0.739384 0.443251 0.744991 0.36237 0.827921 0.373922 0.81121 0.453257 0.744991 0.36237 0.761702 0.283036 0.833527 0.293041 0.827921 0.373922 0.327935 0.918695 0.40467 0.888891 0.426829 0.924415 0.366315 0.980224 0.426829 0.924415 0.40467 0.888891 0.484375 0.863847 0.114119 0.856835 0.15073 0.836522 0.171665 0.917403 0.114119 0.856835 0.061478 0.793545 0.124891 0.758362 0.15073 0.836522 0.010223 0.706959 0.015829 0.626078 0.098759 0.63763 0.082048 0.716964 0.015829 0.626078 0.03254 0.546743 0.104366 0.556749 0.098759 0.63763 0.03254 0.546743 0.058878 0.46875 0.100346 0.474526 0.104366 0.556749 0.463441 0.944728 0.426829 0.924415 0.484375 0.863847 0.15073 0.836522 0.192599 0.836522 0.171665 0.917403 0.15073 0.836522 0.135405 0.755641 0.207924 0.755641 0.192599 0.836522 0.104366 0.718511 0.098759 0.63763 0.182491 0.63763 0.176884 0.718511 0.098759 0.63763 0.104366 0.556749 0.176884 0.556749 0.182491 0.63763 0.104366 0.556749 0.119691 0.475867 0.161559 0.475867 0.176884 0.556749 0.505309 0.944728 0.463441 0.944728 0.484375 0.863847</float_array>
          <technique_common>
            <accessor source="#6f8d7a13-075e-3912-83ba-936bb74a02ba-mesh-map-0-array" count="264" stride="2">
              <param name="S" type="float"/>
              <param name="T" type="float"/>
            </accessor>
          </technique_common>
        </source>
        <vertices id="6f8d7a13-075e-3912-83ba-936bb74a02ba-mesh-vertices">
          <input semantic="POSITION" source="#6f8d7a13-075e-3912-83ba-936bb74a02ba-mesh-positions"/>
        </vertices>
        <polylist material="Material_0-material" count="6">
          <input semantic="VERTEX" source="#6f8d7a13-075e-3912-83ba-936bb74a02ba-mesh-vertices" offset="0"/>
          <input semantic="NORMAL" source="#6f8d7a13-075e-3912-83ba-936bb74a02ba-mesh-normals" offset="1"/>
          <input semantic="TEXCOORD" source="#6f8d7a13-075e-3912-83ba-936bb74a02ba-mesh-map-0" offset="2" set="0"/>
          <vcount>3 4 4 4 4 3 3 4 4 4 4 3 3 4 4 4 4 3 3 4 4 4 4 3 3 4 4 4 4 3 3 4 4 4 4 3 3 4 4 4 4 3 3 4 4 4 4 3 3 4 4 4 4 3 3 4 4 4 4 3 3 4 4 4 4 3 3 4 4 4 4 3</vcount>
          <p>2 0 0 7 0 1 1 0 2 2 1 3 3 1 4 8 1 5 7 1 6 3 2 7 4 2 8 9 2 9 8 2 10 4 3 11 5 3 12 10 3 13 9 3 14 5 4 15 6 4 16 11 4 17 10 4 18 11 5 19 6 5 20 0 5 21 7 6 22 12 6 23 1 6 24 7 7 25 8 7 26 13 7 27 12 7 28 8 8 29 9 8 30 14 8 31 13 8 32 9 9 33 10 9 34 15 9 35 14 9 36 10 10 37 11 10 38 16 10 39 15 10 40 16 11 41 11 11 42 0 11 43 12 12 44 17 12 45 1 12 46 12 13 47 13 13 48 18 13 49 17 13 50 13 14 51 14 14 52 19 14 53 18 14 54 14 15 55 15 15 56 20 15 57 19 15 58 15 16 59 16 16 60 21 16 61 20 16 62 21 17 63 16 17 64 0 17 65 17 18 66 22 18 67 1 18 68 17 19 69 18 19 70 23 19 71 22 19 72 18 20 73 19 20 74 24 20 75 23 20 76 19 21 77 20 21 78 25 21 79 24 21 80 20 22 81 21 22 82 26 22 83 25 22 84 26 23 85 21 23 86 0 23 87 22 24 88 27 24 89 1 24 90 22 25 91 23 25 92 28 25 93 27 25 94 23 26 95 24 26 96 29 26 97 28 26 98 24 27 99 25 27 100 30 27 101 29 27 102 25 28 103 26 28 104 31 28 105 30 28 106 31 29 107 26 29 108 0 29 109 27 30 110 32 30 111 1 30 112 27 31 113 28 31 114 33 31 115 32 31 116 28 32 117 29 32 118 34 32 119 33 32 120 29 33 121 30 33 122 35 33 123 34 33 124 30 34 125 31 34 126 36 34 127 35 34 128 36 35 129 31 35 130 0 35 131 32 36 132 37 36 133 1 36 134 32 37 135 33 37 136 38 37 137 37 37 138 33 38 139 34 38 140 39 38 141 38 38 142 34 39 143 35 39 144 40 39 145 39 39 146 35 40 147 36 40 148 41 40 149 40 40 150 41 41 151 36 41 152 0 41 153 37 42 154 42 42 155 1 42 156 37 43 157 38 43 158 43 43 159 42 43 160 38 44 161 39 44 162 44 44 163 43 44 164 39 45 165 40 45 166 45 45 167 44 45 168 40 46 169 41 46 170 46 46 171 45 46 172 46 47 173 41 47 174 0 47 175 42 48 176 47 48 177 1 48 178 42 49 179 43 49 180 48 49 181 47 49 182 43 50 183 44 50 184 49 50 185 48 50 186 44 51 187 45 51 188 50 51 189 49 51 190 45 52 191 46 52 192 51 52 193 50 52 194 51 53 195 46 53 196 0 53 197 47 54 198 52 54 199 1 54 200 47 55 201 48 55 202 53 55 203 52 55 204 48 56 205 49 56 206 54 56 207 53 56 208 49 57 209 50 57 210 55 57 211 54 57 212 50 58 213 51 58 214 56 58 215 55 58 216 56 59 217 51 59 218 0 59 219 52 60 220 57 60 221 1 60 222 52 61 223 53 61 224 58 61 225 57 61 226 53 62 227 54 62 228 59 62 229 58 62 230 54 63 231 55 63 232 60 63 233 59 63 234 55 64 235 56 64 236 61 64 237 60 64 238 61 65 239 56 65 240 0 65 241 57 66 242 2 66 243 1 66 244 57 67 245 58 67 246 3 67 247 2 67 248 58 68 249 59 68 250 4 68 251 3 68 252 59 69 253 60 69 254 5 69 255 4 69 256 60 70 257 61 70 258 6 70 259 5 70 260 6 71 261 61 71 262 0 71 263</p>
        </polylist>
      </mesh>
    </geometry>
    <geometry id="f9db2cfc-a226-97c2-c759-fc1bfdac6cbc-mesh" name="sphere">
      <mesh>
        <source id="f9db2cfc-a226-97c2-c759-fc1bfdac6cbc-mesh-positions">
          <float_array id="f9db2cfc-a226-97c2-c759-fc1bfdac6cbc-mesh-positions-array" count="186">0 0.125 0 0 0.625 0 0.033494 0.591506 0.125 0.058013 0.5 0.216506 0.066987 0.375 0.25 0.058013 0.25 0.216506 0.033494 0.158494 0.125 0.091506 0.591506 0.091506 0.158494 0.5 0.158494 0.183013 0.375 0.183013 0.158494 0.25 0.158494 0.091506 0.158494 0.091506 0.125 0.591506 0.033494 0.216506 0.5 0.058013 0.25 0.375 0.066987 0.216506 0.25 0.058013 0.125 0.158494 0.033494 0.125 0.591506 -0.033494 0.216506 0.5 -0.058013 0.25 0.375 -0.066987 0.216506 0.25 -0.058013 0.125 0.158494 -0.033494 0.091506 0.591506 -0.091506 0.158494 0.5 -0.158494 0.183013 0.375 -0.183013 0.158494 0.25 -0.158494 0.091506 0.158494 -0.091506 0.033494 0.591506 -0.125 0.058013 0.5 -0.216506 0.066987 0.375 -0.25 0.058013 0.25 -0.216506 0.033494 0.158494 -0.125 -0.033494 0.591506 -0.125 -0.058013 0.5 -0.216506 -0.066987 0.375 -0.25 -0.058013 0.25 -0.216506 -0.033494 0.158494 -0.125 -0.091506 0.591506 -0.091506 -0.158494 0.5 -0.158494 -0.183013 0.375 -0.183013 -0.158494 0.25 -0.158494 -0.091506 0.158494 -0.091506 -0.125 0.591506 -0.033494 -0.216506 0.5 -0.058013 -0.25 0.375 -0.066987 -0.216506 0.25 -0.058013 -0.125 0.158494 -0.033494 -0.125 0.591506 0.033494 -0.216506 0.5 0.058013 -0.25 0.375 0.066987 -0.216506 0.25 0.058013 -0.125 0.158494 0.033494 -0.091506 0.591506 0.091506 -0.158494 0.5 0.158494 -0.183013 0.375 0.183013 -0.158494 0.25 0.158494 -0.091506 0.158494 0.091506 -0.033494 0.591506 0.125 -0.058013 0.5 0.216506 -0.066987 0.375 0.25 -0.058013 0.25 0.216506 -0.033494 0.158494 0.125</float_array>
          <technique_common>
            <accessor source="#f9db2cfc-a226-97c2-c759-fc1bfdac6cbc-mesh-positions-array" count="62" stride="3">
              <param name="X" type="float"/>
              <param name="Y" type="float"/>
              <param name="Z" type="float"/>
            </accessor>
          </technique_common>
        </source>
        <source id="f9db2cfc-a226-97c2-c759-fc1bfdac6cbc-mesh-normals">
          <float_array id="f9db2cfc-a226-97c2-c759-fc1bfdac6cbc-mesh-normals-array" count="216">0.12941 0.965926 0.224144 0.353553 0.707107 0.612372 0.482963 0.258819 0.836516 0.482963 -0.258819 0.836516 0.353553 -0.707107 0.612372 0.12941 -0.965926 0.224144 0.224144 0.965926 0.12941 0.612372 0.707107 0.353553 0.836516 0.258819 0.482963 0.836516 -0.258819 0.482963 0.612372 -0.707107 0.353553 0.224144 -0.965926 0.12941 0.258819 0.965926 0 0.707107 0.707107 0 0.965926 0.258819 0 0.965926 -0.258819 0 0.707107 -0.707107 0 0.258819 -0.965926 0 0.224144 0.965926 -0.12941 0.612372 0.707107 -0.353553 0.836516 0.258819 -0.482963 0.836516 -0.258819 -0.482963 0.612372 -0.707107 -0.353553 0.224144 -0.965926 -0.12941 0.12941 0.965926 -0.224144 0.353553 0.707107 -0.612372 0.482963 0.258819 -0.836516 0.482963 -0.258819 -0.836516 0.353553 -0.707107 -0.612372 0.12941 -0.965926 -0.224144 0 0.965926 -0.258819 0 0.707107 -0.707107 0 0.258819 -0.965926 0 -0.258819 -0.965926 0 -0.707107 -0.707107 0 -0.965926 -0.258819 -0.12941 0.965926 -0.224144 -0.353553 0.707107 -0.612372 -0.482963 0.258819 -0.836516 -0.482963 -0.258819 -0.836516 -0.353553 -0.707107 -0.612372 -0.12941 -0.965926 -0.224144 -0.224144 0.965926 -0.12941 -0.612372 0.707107 -0.353553 -0.836516 0.258819 -0.482963 -0.836516 -0.258819 -0.482963 -0.612372 -0.707107 -0.353553 -0.224144 -0.965926 -0.12941 -0.258819 0.965926 0 -0.707107 0.707107 0 -0.965926 0.258819 0 -0.965926 -0.258819 0 -0.707107 -0.707107 0 -0.258819 -0.965926 0 -0.224144 0.965926 0.12941 -0.612372 0.707107 0.353553 -0.836516 0.258819 0.482963 -0.836516 -0.258819 0.482963 -0.612372 -0.707107 0.353553 -0.224144 -0.965926 0.12941 -0.12941 0.965926 0.224144 -0.353553 0.707107 0.612372 -0.482963 0.258819 0.836516 -0.482963 -0.258819 0.836516 -0.353553 -0.707107 0.612372 -0.12941 -0.965926 0.224144 0 0.965926 0.258819 0 0.707107 0.707107 0 0.258819 0.965926 0 -0.258819 0.965926 0 -0.707107 0.707107 0 -0.965926 0.258819</float_array>
          <technique_common>
            <accessor source="#f9db2cfc-a226-97c2-c759-fc1bfdac6cbc-mesh-normals-array" count="72" stride="3">
              <param name="X" type="float"/>
              <param name="Y" type="float"/>
              <param name="Z" type="float"/>
            </accessor>
          </technique_common>
        </source>
        <source id="f9db2cfc-a226-97c2-c759-fc1bfdac6cbc-mesh-map-0">
          <float_array id="f9db2cfc-a226-97c2-c759-fc1bfdac6cbc-mesh-map-0-array" count="528">0.157204 0.869213 0.188376 0.881466 0.14912 0.935561 0.157204 0.869213 0.169463 0.80451 0.223455 0.825732 0.188376 0.881466 0.156245 0.733025 0.142869 0.669561 0.209215 0.660314 0.213702 0.725017 0.142869 0.669561 0.138381 0.604858 0.195838 0.596849 0.209215 0.660314 0.138381 0.604858 0.141591 0.539082 0.174764 0.534458 0.195838 0.596849 0.65541 0.520788 0.626122 0.537037 0.609375 0.47233 0.188376 0.881466 0.212906 0.904272 0.156582 0.940258 0.188376 0.881466 0.223455 0.825732 0.265941 0.865233 0.212906 0.904272 0.411298 0.975017 0.415785 0.910314 0.482131 0.919561 0.468755 0.983025 0.415785 0.910314 0.429162 0.846849 0.486619 0.854858 0.482131 0.919561 0.703818 0.565436 0.65541 0.520788 0.673138 0.49237 0.734524 0.516216 0.673138 0.49237 0.65541 0.520788 0.609375 0.47233 0.212906 0.904272 0.223292 0.936115 0.156582 0.940258 0.018757 0.487748 0.006498 0.423045 0.06451 0.423045 0.052251 0.487748 0.506694 0.998889 0.484684 0.937879 0.549119 0.919561 0.562495 0.983025 0.482131 0.919561 0.486619 0.854858 0.544631 0.854858 0.549119 0.919561 0.488227 0.841293 0.515276 0.78125 0.547841 0.789082 0.544631 0.854858 0.674854 0.458921 0.673138 0.49237 0.609375 0.47233 0.223292 0.936115 0.216926 0.968998 0.156582 0.940258 0.052251 0.487748 0.06451 0.423045 0.118502 0.444266 0.083423 0.5 0.562495 0.983025 0.549119 0.919561 0.615465 0.910314 0.619952 0.975017 0.549119 0.919561 0.544631 0.854858 0.602088 0.846849 0.615465 0.910314 0.544631 0.854858 0.547841 0.789082 0.581014 0.784458 0.602088 0.846849 0.660127 0.428838 0.674854 0.458921 0.609375 0.47233 0.181292 0.986834 0.150495 1 0.140457 0.93392 0.293986 0.809292 0.272912 0.746901 0.330369 0.738892 0.327159 0.804668 0.272912 0.746901 0.259535 0.683436 0.325881 0.674189 0.330369 0.738892 0.259535 0.683436 0.255048 0.618733 0.312505 0.610725 0.325881 0.674189 0.505134 0.70354 0.540213 0.647806 0.571385 0.660059 0.559126 0.724762 0.632656 0.409678 0.660127 0.428838 0.609375 0.47233 0.150495 1 0.117177 0.996572 0.140457 0.93392 0.359026 0.8125 0.331977 0.752457 0.388381 0.738892 0.391591 0.804668 0.330369 0.738892 0.325881 0.674189 0.392869 0.674189 0.388381 0.738892 0.328434 0.655871 0.350444 0.594861 0.406245 0.610725 0.392869 0.674189 0.559126 0.724762 0.571385 0.660059 0.604879 0.660059 0.617138 0.724762 0.599338 0.40625 0.632656 0.409678 0.609375 0.47233 0.117177 0.996572 0.089705 0.977412 0.140457 0.93392 0.391591 0.804668 0.388381 0.738892 0.445838 0.746901 0.424764 0.809292 0.388381 0.738892 0.392869 0.674189 0.459215 0.683436 0.445838 0.746901 0.392869 0.674189 0.406245 0.610725 0.463702 0.618733 0.459215 0.683436 0.617138 0.724762 0.604879 0.660059 0.636051 0.647806 0.67113 0.70354 0.558623 0.428838 0.586094 0.409678 0.609375 0.47233 0.089705 0.977412 0.074978 0.947329 0.140457 0.93392 0.262736 0.559292 0.241662 0.496901 0.299119 0.488892 0.295909 0.554668 0.241662 0.496901 0.228285 0.433436 0.294631 0.424189 0.299119 0.488892 0.228285 0.433436 0.223798 0.368733 0.281255 0.360725 0.294631 0.424189 0.67113 0.70354 0.636051 0.647806 0.660581 0.625 0.713616 0.664039 0.543896 0.458921 0.558623 0.428838 0.609375 0.47233 0.074978 0.947329 0.076694 0.91388 0.140457 0.93392 0.295909 0.554668 0.299119 0.488892 0.355523 0.502457 0.328474 0.5625 0.299119 0.488892 0.294631 0.424189 0.361619 0.424189 0.357131 0.488892 0.297184 0.405871 0.319194 0.344861 0.374995 0.360725 0.361619 0.424189 0.283494 1 0.295753 0.9375 0.329247 0.9375 0.341506 1 0.545612 0.49237 0.543896 0.458921 0.609375 0.47233 0.076694 0.91388 0.094422 0.885462 0.140457 0.93392 0.076694 0.91388 0.015309 0.890034 0.046014 0.840814 0.094422 0.885462 0.357131 0.488892 0.361619 0.424189 0.427965 0.433436 0.414588 0.496901 0.361619 0.424189 0.374995 0.360725 0.432452 0.368733 0.427965 0.433436 0.484226 0.516216 0.545612 0.49237 0.56334 0.520788 0.514932 0.565436 0.56334 0.520788 0.545612 0.49237 0.609375 0.47233 0.094422 0.885462 0.12371 0.869213 0.140457 0.93392 0.094422 0.885462 0.052312 0.834831 0.103041 0.806687 0.12371 0.869213 0.005048 0.725017 0.009535 0.660314 0.075881 0.669561 0.062505 0.733025 0.009535 0.660314 0.022912 0.596849 0.080369 0.604858 0.075881 0.669561 0.022912 0.596849 0.043986 0.534458 0.077159 0.539082 0.080369 0.604858 0.592628 0.537037 0.56334 0.520788 0.609375 0.47233 0.12371 0.869213 0.157204 0.869213 0.140457 0.93392 0.12371 0.869213 0.111451 0.80451 0.169463 0.80451 0.157204 0.869213 0.100444 0.748889 0.078434 0.687879 0.142869 0.669561 0.156245 0.733025 0.075881 0.669561 0.080369 0.604858 0.138381 0.604858 0.142869 0.669561 0.081977 0.591293 0.109026 0.53125 0.141591 0.539082 0.138381 0.604858 0.626122 0.537037 0.592628 0.537037 0.609375 0.47233</float_array>
          <technique_common>
            <accessor source="#f9db2cfc-a226-97c2-c759-fc1bfdac6cbc-mesh-map-0-array" count="264" stride="2">
              <param name="S" type="float"/>
              <param name="T" type="float"/>
            </accessor>
          </technique_common>
        </source>
        <vertices id="f9db2cfc-a226-97c2-c759-fc1bfdac6cbc-mesh-vertices">
          <input semantic="POSITION" source="#f9db2cfc-a226-97c2-c759-fc1bfdac6cbc-mesh-positions"/>
        </vertices>
        <polylist material="Material_1-material" count="6">
          <input semantic="VERTEX" source="#f9db2cfc-a226-97c2-c759-fc1bfdac6cbc-mesh-vertices" offset="0"/>
          <input semantic="NORMAL" source="#f9db2cfc-a226-97c2-c759-fc1bfdac6cbc-mesh-normals" offset="1"/>
          <input semantic="TEXCOORD" source="#f9db2cfc-a226-97c2-c759-fc1bfdac6cbc-mesh-map-0" offset="2" set="0"/>
          <vcount>3 4 4 4 4 3 3 4 4 4 4 3 3 4 4 4 4 3 3 4 4 4 4 3 3 4 4 4 4 3 3 4 4 4 4 3 3 4 4 4 4 3 3 4 4 4 4 3 3 4 4 4 4 3 3 4 4 4 4 3 3 4 4 4 4 3 3 4 4 4 4 3</vcount>
          <p>2 0 0 7 0 1 1 0 2 2 1 3 3 1 4 8 1 5 7 1 6 3 2 7 4 2 8 9 2 9 8 2 10 4 3 11 5 3 12 10 3 13 9 3 14 5 4 15 6 4 16 11 4 17 10 4 18 11 5 19 6 5 20 0 5 21 7 6 22 12 6 23 1 6 24 7 7 25 8 7 26 13 7 27 12 7 28 8 8 29 9 8 30 14 8 31 13 8 32 9 9 33 10 9 34 15 9 35 14 9 36 10 10 37 11 10 38 16 10 39 15 10 40 16 11 41 11 11 42 0 11 43 12 12 44 17 12 45 1 12 46 12 13 47 13 13 48 18 13 49 17 13 50 13 14 51 14 14 52 19 14 53 18 14 54 14 15 55 15 15 56 20 15 57 19 15 58 15 16 59 16 16 60 21 16 61 20 16 62 21 17 63 16 17 64 0 17 65 17 18 66 22 18 67 1 18 68 17 19 69 18 19 70 23 19 71 22 19 72 18 20 73 19 20 74 24 20 75 23 20 76 19 21 77 20 21 78 25 21 79 24 21 80 20 22 81 21 22 82 26 22 83 25 22 84 26 23 85 21 23 86 0 23 87 22 24 88 27 24 89 1 24 90 22 25 91 23 25 92 28 25 93 27 25 94 23 26 95 24 26 96 29 26 97 28 26 98 24 27 99 25 27 100 30 27 101 29 27 102 25 28 103 26 28 104 31 28 105 30 28 106 31 29 107 26 29 108 0 29 109 27 30 110 32 30 111 1 30 112 27 31 113 28 31 114 33 31 115 32 31 116 28 32 117 29 32 118 34 32 119 33 32 120 29 33 121 30 33 122 35 33 123 34 33 124 30 34 125 31 34 126 36 34 127 35 34 128 36 35 129 31 35 130 0 35 131 32 36 132 37 36 133 1 36 134 32 37 135 33 37 136 38 37 137 37 37 138 33 38 139 34 38 140 39 38 141 38 38 142 34 39 143 35 39 144 40 39 145 39 39 146 35 40 147 36 40 148 41 40 149 40 40 150 41 41 151 36 41 152 0 41 153 37 42 154 42 42 155 1 42 156 37 43 157 38 43 158 43 43 159 42 43 160 38 44 161 39 44 162 44 44 163 43 44 164 39 45 165 40 45 166 45 45 167 44 45 168 40 46 169 41 46 170 46 46 171 45 46 172 46 47 173 41 47 174 0 47 175 42 48 176 47 48 177 1 48 178 42 49 179 43 49 180 48 49 181 47 49 182 43 50 183 44 50 184 49 50 185 48 50 186 44 51 187 45 51 188 50 51 189 49 51 190 45 52 191 46 52 192 51 52 193 50 52 194 51 53 195 46 53 196 0 53 197 47 54 198 52 54 199 1 54 200 47 55 201 48 55 202 53 55 203 52 55 204 48 56 205 49 56 206 54 56 207 53 56 208 49 57 209 50 57 210 55 57 211 54 57 212 50 58 213 51 58 214 56 58 215 55 58 216 56 59 217 51 59 218 0 59 219 52 60 220 57 60 221 1 60 222 52 61 223 53 61 224 58 61 225 57 61 226 53 62 227 54 62 228 59 62 229 58 62 230 54 63 231 55 63 232 60 63 233 59 63 234 55 64 235 56 64 236 61 64 237 60 64 238 61 65 239 56 65 240 0 65 241 57 66 242 2 66 243 1 66 244 57 67 245 58 67 246 3 67 247 2 67 248 58 68 249 59 68 250 4 68 251 3 68 252 59 69 253 60 69 254 5 69 255 4 69 256 60 70 257 61 70 258 6 70 259 5 70 260 6 71 261 61 71 262 0 71 263</p>
        </polylist>
      </mesh>
    </geometry>
  </library_geometries>
  <library_visual_scenes>
    <visual_scene id="Scene" name="Scene">
      <node id="6f8d7a13-075e-3912-83ba-936bb74a02ba" name="sphere" type="NODE">
        <scale sid="scale">1 1 1</scale>
        <translate sid="location">0 0 0</translate>
        <rotate sid="rotationX">1 0 0 0</rotate>
        <rotate sid="rotationY">0 1 0 0</rotate>
        <rotate sid="rotationZ">0 0 1 0</rotate>
        <instance_geometry url="#6f8d7a13-075e-3912-83ba-936bb74a02ba-mesh" name="sphere">
          <bind_material>
            <technique_common>
              <instance_material symbol="Material_0-material" target="#Material_0-material">
                <bind_vertex_input semantic="UVMap" input_semantic="TEXCOORD" input_set="0"/>
              </instance_material>
            </technique_common>
          </bind_material>
        </instance_geometry>
      </node>
      <node id="f9db2cfc-a226-97c2-c759-fc1bfdac6cbc" name="sphere" type="NODE">
        <scale sid="scale">1 1 1</scale>
        <translate sid="location">0 0 0</translate>
        <rotate sid="rotationX">1 0 0 0</rotate>
        <rotate sid="rotationY">0 1 0 0</rotate>
        <rotate sid="rotationZ">0 0 1 0</rotate>
        <instance_geometry url="#f9db2cfc-a226-97c2-c759-fc1bfdac6cbc-mesh" name="sphere">
          <bind_material>
            <technique_common>
              <instance_material symbol="Material_1-material" target="#Material_1-material">
                <bind_vertex_input semantic="UVMap" input_semantic="TEXCOORD" input_set="0"/>
              </instance_material>
            </technique_common>
          </bind_material>
        </instance_geometry>
      </node>
    </visual_scene>
  </library_visual_scenes>
  <scene>
    <instance_visual_scene url="#Scene"/>
  </scene>
</COLLADA>
