{
	"asset":{
		"generator":"Khronos glTF Blender I/O v3.6.28",
		"version":"2.0"
	},
	"scene":0,
	"scenes":[
		{
			"name":"Scene",
			"nodes":[
				30
			]
		}
	],
	"nodes":[
		{
			"name":"group1"
		},
		{
			"name":"mixamorig:Head",
			"rotation":[
				5.302496219883324e-10,
				0,
				0,
				1
			],
			"translation":[
				-1.4901161193847656e-08,
				3.5127201080322266,
				-0.01600721664726734
			]
		},
		{
			"children":[
				1
			],
			"name":"mixamorig:Neck",
			"rotation":[
				0.05380447581410408,
				0,
				0,
				0.9985514879226685
			],
			"scale":[
				1,
				0.9999999403953552,
				0.9999999403953552
			],
			"translation":[
				-1.4901161193847656e-08,
				2.432004690170288,
				-8.52346420288086e-06
			]
		},
		{
			"name":"mixamorig:LeftHandIndex3",
			"rotation":[
				5.587936335871291e-09,
				-1.862645593320167e-09,
				7.450580596923828e-09,
				1
			],
			"scale":[
				1,
				0.9999999403953552,
				0.9999999403953552
			],
			"translation":[
				-0.14284172654151917,
				0.5067762136459351,
				-0.5195491313934326
			]
		},
		{
			"children":[
				3
			],
			"name":"mixamorig:LeftHandIndex2",
			"rotation":[
				1.3411046495548362e-07,
				-5.7742006731587026e-08,
				-4.395843120619247e-07,
				1
			],
			"scale":[
				0.9999999403953552,
				0.9999998807907104,
				0.9999998807907104
			],
			"translation":[
				1.9073486328125e-06,
				0.5285566449165344,
				2.0712614059448242e-06
			]
		},
		{
			"children":[
				4
			],
			"name":"mixamorig:LeftHandIndex1",
			"rotation":[
				0.3827981948852539,
				0.5073763728141785,
				-0.26829394698143005,
				0.723915159702301
			],
			"scale":[
				0.9999999403953552,
				0.9999999403953552,
				0.9999998807907104
			],
			"translation":[
				6.4568594098091125e-06,
				2.380788564682007,
				1.0065734386444092e-05
			]
		},
		{
			"children":[
				5
			],
			"name":"mixamorig:LeftHand",
			"rotation":[
				0.10207405686378479,
				0.007796524558216333,
				0.07576088607311249,
				0.9918570518493652
			],
			"scale":[
				1,
				1.0000001192092896,
				1
			],
			"translation":[
				8.791685104370117e-06,
				3.7169950008392334,
				6.146728992462158e-07
			]
		},
		{
			"children":[
				6
			],
			"name":"mixamorig:LeftForeArm",
			"rotation":[
				-0.007681208662688732,
				-0.00028830571682192385,
				0.03753020986914635,
				0.9992659091949463
			],
			"scale":[
				1.0000001192092896,
				1,
				1
			],
			"translation":[
				-7.152557373046875e-07,
				4.363162517547607,
				2.2083520889282227e-05
			]
		},
		{
			"children":[
				7
			],
			"name":"mixamorig:LeftArm",
			"rotation":[
				0.023643210530281067,
				-0.0007253522635437548,
				-0.030643824487924576,
				0.9992504119873047
			],
			"scale":[
				0.9999998807907104,
				1.0000001192092896,
				1
			],
			"translation":[
				-9.715557098388672e-06,
				3.283585786819458,
				-7.802620530128479e-06
			]
		},
		{
			"children":[
				8
			],
			"name":"mixamorig:LeftShoulder",
			"rotation":[
				0.5565140247344971,
				0.4306175708770752,
				-0.5749589800834656,
				0.41747191548347473
			],
			"scale":[
				1.0000001192092896,
				1.0000001192092896,
				1
			],
			"translation":[
				1.5479739904403687,
				1.9621549844741821,
				-0.05111780762672424
			]
		},
		{
			"name":"mixamorig:RightHandIndex3",
			"rotation":[
				-2.9802322387695312e-08,
				3.725290298461914e-09,
				-2.2351741790771484e-08,
				1
			],
			"translation":[
				0.16626128554344177,
				0.5572998523712158,
				-0.5587295293807983
			]
		},
		{
			"children":[
				10
			],
			"name":"mixamorig:RightHandIndex2",
			"rotation":[
				-3.725289943190546e-08,
				3.986060335137154e-07,
				-8.009374141693115e-07,
				1
			],
			"scale":[
				1,
				1,
				1.0000001192092896
			],
			"translation":[
				-5.960464477539062e-07,
				0.5879634618759155,
				1.3262033462524414e-06
			]
		},
		{
			"children":[
				11
			],
			"name":"mixamorig:RightHandIndex1",
			"rotation":[
				0.4200380742549896,
				-0.5225418210029602,
				0.3303762376308441,
				0.6643565893173218
			],
			"scale":[
				0.9999999403953552,
				0.9999999403953552,
				0.9999998807907104
			],
			"translation":[
				-1.0877847671508789e-05,
				2.286663055419922,
				6.858259439468384e-06
			]
		},
		{
			"children":[
				12
			],
			"name":"mixamorig:RightHand",
			"rotation":[
				0.09564517438411713,
				-0.01075457502156496,
				-0.11122070997953415,
				0.9891240000724792
			],
			"scale":[
				0.9999999403953552,
				1.0000001192092896,
				1
			],
			"translation":[
				4.0978193283081055e-06,
				3.7171108722686768,
				-3.259629011154175e-06
			]
		},
		{
			"children":[
				13
			],
			"name":"mixamorig:RightForeArm",
			"rotation":[
				-0.007826999761164188,
				0.0002850269083864987,
				-0.03638365492224693,
				0.9993072152137756
			],
			"scale":[
				0.9999999403953552,
				0.9999999403953552,
				0.9999998807907104
			],
			"translation":[
				9.268522262573242e-06,
				4.36219596862793,
				-1.6644597053527832e-05
			]
		},
		{
			"children":[
				14
			],
			"name":"mixamorig:RightArm",
			"rotation":[
				0.023867493495345116,
				0.0006869278731755912,
				0.028773393481969833,
				0.9993007183074951
			],
			"scale":[
				1,
				1.0000001192092896,
				1.0000001192092896
			],
			"translation":[
				1.0713934898376465e-05,
				3.283583641052246,
				4.984438419342041e-06
			]
		},
		{
			"children":[
				15
			],
			"name":"mixamorig:RightShoulder",
			"rotation":[
				0.5566385984420776,
				-0.4305232763290405,
				0.5748562812805176,
				0.41754481196403503
			],
			"scale":[
				0.9999999403953552,
				0.9999999403953552,
				0.9999999403953552
			],
			"translation":[
				-1.5479704141616821,
				1.9620718955993652,
				-0.05049261450767517
			]
		},
		{
			"children":[
				2,
				9,
				16
			],
			"name":"mixamorig:Spine2",
			"rotation":[
				-3.166496753692627e-08,
				0,
				0,
				1
			],
			"scale":[
				1,
				1,
				1.0000001192092896
			],
			"translation":[
				-1.4901161193847656e-08,
				2.1617817878723145,
				-4.973262548446655e-07
			]
		},
		{
			"children":[
				17
			],
			"name":"mixamorig:Spine1",
			"rotation":[
				1.6763806343078613e-08,
				0,
				0,
				1
			],
			"scale":[
				1,
				1,
				1.0000001192092896
			],
			"translation":[
				-1.4901161193847656e-08,
				1.8915592432022095,
				3.293156623840332e-06
			]
		},
		{
			"children":[
				18
			],
			"name":"mixamorig:Spine",
			"rotation":[
				-0.05380445346236229,
				0,
				0,
				0.9985514879226685
			],
			"scale":[
				1,
				0.9999999403953552,
				1
			],
			"translation":[
				-1.4901161193847656e-08,
				1.6119575500488281,
				-0.174213707447052
			]
		},
		{
			"name":"mixamorig:LeftToeBase",
			"rotation":[
				0.3763146698474884,
				0.1043432354927063,
				-0.04269902780652046,
				0.9196067452430725
			],
			"scale":[
				0.9999997019767761,
				0.9999999403953552,
				0.9999998807907104
			],
			"translation":[
				2.4884939193725586e-06,
				2.185896396636963,
				-5.327165126800537e-06
			]
		},
		{
			"children":[
				20
			],
			"name":"mixamorig:LeftFoot",
			"rotation":[
				0.43271663784980774,
				0.06229369714856148,
				-0.029987873509526253,
				0.8988752365112305
			],
			"scale":[
				0.9999999403953552,
				0.9999998211860657,
				0.9999999403953552
			],
			"translation":[
				8.655479177832603e-08,
				5.574562072753906,
				1.5916302800178528e-06
			]
		},
		{
			"children":[
				21
			],
			"name":"mixamorig:LeftLeg",
			"rotation":[
				-0.07254432886838913,
				0.0019413799745962024,
				-0.02666056714951992,
				0.997006893157959
			],
			"scale":[
				1,
				1.0000001192092896,
				1.0000001192092896
			],
			"translation":[
				1.525040715932846e-08,
				6.696130275726318,
				8.15671228338033e-08
			]
		},
		{
			"children":[
				22
			],
			"name":"mixamorig:LeftUpLeg",
			"rotation":[
				-0.00042752380250021815,
				-0.026235468685626984,
				-0.9995236396789551,
				0.016250723972916603
			],
			"scale":[
				1.000001072883606,
				1.000000238418579,
				1.0000027418136597
			],
			"translation":[
				2.0489578247070312,
				-0.8929271697998047,
				-0.6003972291946411
			]
		},
		{
			"name":"mixamorig:RightToeBase",
			"rotation":[
				0.41860535740852356,
				-0.12018702924251556,
				0.0559980608522892,
				0.8984369039535522
			],
			"scale":[
				1,
				0.9999999403953552,
				1
			],
			"translation":[
				-1.7136335372924805e-06,
				2.0054492950439453,
				-1.8030405044555664e-06
			]
		},
		{
			"children":[
				24
			],
			"name":"mixamorig:RightFoot",
			"rotation":[
				0.37930604815483093,
				-0.07764331996440887,
				0.03196082264184952,
				0.9214537143707275
			],
			"scale":[
				1,
				1.0000001192092896,
				1.0000001192092896
			],
			"translation":[
				-9.186842362396419e-07,
				5.563074111938477,
				-1.7085112631320953e-06
			]
		},
		{
			"children":[
				25
			],
			"name":"mixamorig:RightLeg",
			"rotation":[
				-0.055973414331674576,
				-0.0014966155868023634,
				0.026671556755900383,
				0.9980748295783997
			],
			"scale":[
				1,
				1.0000001192092896,
				1
			],
			"translation":[
				1.1621159501373768e-06,
				6.693714141845703,
				-1.186859662993811e-06
			]
		},
		{
			"children":[
				26
			],
			"name":"mixamorig:RightUpLeg",
			"rotation":[
				-0.0003671495069283992,
				0.022527514025568962,
				0.9996140003204346,
				0.01625812239944935
			],
			"scale":[
				1.0000009536743164,
				1.0000001192092896,
				1.0000017881393433
			],
			"translation":[
				-2.048956871032715,
				-0.8929214477539062,
				-0.586818516254425
			]
		},
		{
			"children":[
				19,
				23,
				27
			],
			"name":"mixamorig:Hips",
			"rotation":[
				-0.7071067690849304,
				0,
				0,
				0.7071067690849304
			],
			"translation":[
				-0.24390701949596405,
				0.5974160432815552,
				-21.246896743774414
			]
		},
		{
			"mesh":0,
			"name":"pCube91",
			"skin":0
		},
		{
			"children":[
				0,
				29,
				28
			],
			"name":"group",
			"rotation":[
				0.7071068286895752,
				0,
				0,
				0.7071068286895752
			],
			"scale":[
				0.05999999865889549,
				0.05999999865889549,
				0.05999999865889549
			]
		}
	],
	"animations":[
		{
			"channels":[
				{
					"sampler":0,
					"target":{
						"node":28,
						"path":"translation"
					}
				},
				{
					"sampler":1,
					"target":{
						"node":28,
						"path":"rotation"
					}
				},
				{
					"sampler":2,
					"target":{
						"node":28,
						"path":"scale"
					}
				},
				{
					"sampler":3,
					"target":{
						"node":19,
						"path":"translation"
					}
				},
				{
					"sampler":4,
					"target":{
						"node":19,
						"path":"rotation"
					}
				},
				{
					"sampler":5,
					"target":{
						"node":19,
						"path":"scale"
					}
				},
				{
					"sampler":6,
					"target":{
						"node":18,
						"path":"translation"
					}
				},
				{
					"sampler":7,
					"target":{
						"node":18,
						"path":"rotation"
					}
				},
				{
					"sampler":8,
					"target":{
						"node":18,
						"path":"scale"
					}
				},
				{
					"sampler":9,
					"target":{
						"node":17,
						"path":"translation"
					}
				},
				{
					"sampler":10,
					"target":{
						"node":17,
						"path":"rotation"
					}
				},
				{
					"sampler":11,
					"target":{
						"node":17,
						"path":"scale"
					}
				},
				{
					"sampler":12,
					"target":{
						"node":2,
						"path":"translation"
					}
				},
				{
					"sampler":13,
					"target":{
						"node":2,
						"path":"rotation"
					}
				},
				{
					"sampler":14,
					"target":{
						"node":2,
						"path":"scale"
					}
				},
				{
					"sampler":15,
					"target":{
						"node":1,
						"path":"translation"
					}
				},
				{
					"sampler":16,
					"target":{
						"node":1,
						"path":"rotation"
					}
				},
				{
					"sampler":17,
					"target":{
						"node":1,
						"path":"scale"
					}
				},
				{
					"sampler":18,
					"target":{
						"node":9,
						"path":"translation"
					}
				},
				{
					"sampler":19,
					"target":{
						"node":9,
						"path":"rotation"
					}
				},
				{
					"sampler":20,
					"target":{
						"node":9,
						"path":"scale"
					}
				},
				{
					"sampler":21,
					"target":{
						"node":8,
						"path":"translation"
					}
				},
				{
					"sampler":22,
					"target":{
						"node":8,
						"path":"rotation"
					}
				},
				{
					"sampler":23,
					"target":{
						"node":8,
						"path":"scale"
					}
				},
				{
					"sampler":24,
					"target":{
						"node":7,
						"path":"translation"
					}
				},
				{
					"sampler":25,
					"target":{
						"node":7,
						"path":"rotation"
					}
				},
				{
					"sampler":26,
					"target":{
						"node":7,
						"path":"scale"
					}
				},
				{
					"sampler":27,
					"target":{
						"node":6,
						"path":"translation"
					}
				},
				{
					"sampler":28,
					"target":{
						"node":6,
						"path":"rotation"
					}
				},
				{
					"sampler":29,
					"target":{
						"node":6,
						"path":"scale"
					}
				},
				{
					"sampler":30,
					"target":{
						"node":5,
						"path":"translation"
					}
				},
				{
					"sampler":31,
					"target":{
						"node":5,
						"path":"rotation"
					}
				},
				{
					"sampler":32,
					"target":{
						"node":5,
						"path":"scale"
					}
				},
				{
					"sampler":33,
					"target":{
						"node":4,
						"path":"translation"
					}
				},
				{
					"sampler":34,
					"target":{
						"node":4,
						"path":"rotation"
					}
				},
				{
					"sampler":35,
					"target":{
						"node":4,
						"path":"scale"
					}
				},
				{
					"sampler":36,
					"target":{
						"node":3,
						"path":"translation"
					}
				},
				{
					"sampler":37,
					"target":{
						"node":3,
						"path":"rotation"
					}
				},
				{
					"sampler":38,
					"target":{
						"node":3,
						"path":"scale"
					}
				},
				{
					"sampler":39,
					"target":{
						"node":16,
						"path":"translation"
					}
				},
				{
					"sampler":40,
					"target":{
						"node":16,
						"path":"rotation"
					}
				},
				{
					"sampler":41,
					"target":{
						"node":16,
						"path":"scale"
					}
				},
				{
					"sampler":42,
					"target":{
						"node":15,
						"path":"translation"
					}
				},
				{
					"sampler":43,
					"target":{
						"node":15,
						"path":"rotation"
					}
				},
				{
					"sampler":44,
					"target":{
						"node":15,
						"path":"scale"
					}
				},
				{
					"sampler":45,
					"target":{
						"node":14,
						"path":"translation"
					}
				},
				{
					"sampler":46,
					"target":{
						"node":14,
						"path":"rotation"
					}
				},
				{
					"sampler":47,
					"target":{
						"node":14,
						"path":"scale"
					}
				},
				{
					"sampler":48,
					"target":{
						"node":13,
						"path":"translation"
					}
				},
				{
					"sampler":49,
					"target":{
						"node":13,
						"path":"rotation"
					}
				},
				{
					"sampler":50,
					"target":{
						"node":13,
						"path":"scale"
					}
				},
				{
					"sampler":51,
					"target":{
						"node":12,
						"path":"translation"
					}
				},
				{
					"sampler":52,
					"target":{
						"node":12,
						"path":"rotation"
					}
				},
				{
					"sampler":53,
					"target":{
						"node":12,
						"path":"scale"
					}
				},
				{
					"sampler":54,
					"target":{
						"node":11,
						"path":"translation"
					}
				},
				{
					"sampler":55,
					"target":{
						"node":11,
						"path":"rotation"
					}
				},
				{
					"sampler":56,
					"target":{
						"node":11,
						"path":"scale"
					}
				},
				{
					"sampler":57,
					"target":{
						"node":10,
						"path":"translation"
					}
				},
				{
					"sampler":58,
					"target":{
						"node":10,
						"path":"rotation"
					}
				},
				{
					"sampler":59,
					"target":{
						"node":10,
						"path":"scale"
					}
				},
				{
					"sampler":60,
					"target":{
						"node":23,
						"path":"translation"
					}
				},
				{
					"sampler":61,
					"target":{
						"node":23,
						"path":"rotation"
					}
				},
				{
					"sampler":62,
					"target":{
						"node":23,
						"path":"scale"
					}
				},
				{
					"sampler":63,
					"target":{
						"node":22,
						"path":"translation"
					}
				},
				{
					"sampler":64,
					"target":{
						"node":22,
						"path":"rotation"
					}
				},
				{
					"sampler":65,
					"target":{
						"node":22,
						"path":"scale"
					}
				},
				{
					"sampler":66,
					"target":{
						"node":21,
						"path":"translation"
					}
				},
				{
					"sampler":67,
					"target":{
						"node":21,
						"path":"rotation"
					}
				},
				{
					"sampler":68,
					"target":{
						"node":21,
						"path":"scale"
					}
				},
				{
					"sampler":69,
					"target":{
						"node":20,
						"path":"translation"
					}
				},
				{
					"sampler":70,
					"target":{
						"node":20,
						"path":"rotation"
					}
				},
				{
					"sampler":71,
					"target":{
						"node":20,
						"path":"scale"
					}
				},
				{
					"sampler":72,
					"target":{
						"node":27,
						"path":"translation"
					}
				},
				{
					"sampler":73,
					"target":{
						"node":27,
						"path":"rotation"
					}
				},
				{
					"sampler":74,
					"target":{
						"node":27,
						"path":"scale"
					}
				},
				{
					"sampler":75,
					"target":{
						"node":26,
						"path":"translation"
					}
				},
				{
					"sampler":76,
					"target":{
						"node":26,
						"path":"rotation"
					}
				},
				{
					"sampler":77,
					"target":{
						"node":26,
						"path":"scale"
					}
				},
				{
					"sampler":78,
					"target":{
						"node":25,
						"path":"translation"
					}
				},
				{
					"sampler":79,
					"target":{
						"node":25,
						"path":"rotation"
					}
				},
				{
					"sampler":80,
					"target":{
						"node":25,
						"path":"scale"
					}
				},
				{
					"sampler":81,
					"target":{
						"node":24,
						"path":"translation"
					}
				},
				{
					"sampler":82,
					"target":{
						"node":24,
						"path":"rotation"
					}
				},
				{
					"sampler":83,
					"target":{
						"node":24,
						"path":"scale"
					}
				}
			],
			"name":"group|Take 001|BaseLayer",
			"samplers":[
				{
					"input":7,
					"interpolation":"LINEAR",
					"output":8
				},
				{
					"input":7,
					"interpolation":"LINEAR",
					"output":9
				},
				{
					"input":10,
					"interpolation":"STEP",
					"output":11
				},
				{
					"input":10,
					"interpolation":"LINEAR",
					"output":12
				},
				{
					"input":7,
					"interpolation":"LINEAR",
					"output":13
				},
				{
					"input":10,
					"interpolation":"LINEAR",
					"output":14
				},
				{
					"input":10,
					"interpolation":"LINEAR",
					"output":15
				},
				{
					"input":7,
					"interpolation":"LINEAR",
					"output":16
				},
				{
					"input":10,
					"interpolation":"STEP",
					"output":17
				},
				{
					"input":10,
					"interpolation":"LINEAR",
					"output":18
				},
				{
					"input":7,
					"interpolation":"LINEAR",
					"output":19
				},
				{
					"input":10,
					"interpolation":"STEP",
					"output":20
				},
				{
					"input":10,
					"interpolation":"LINEAR",
					"output":21
				},
				{
					"input":7,
					"interpolation":"LINEAR",
					"output":22
				},
				{
					"input":10,
					"interpolation":"STEP",
					"output":23
				},
				{
					"input":10,
					"interpolation":"LINEAR",
					"output":24
				},
				{
					"input":7,
					"interpolation":"LINEAR",
					"output":25
				},
				{
					"input":10,
					"interpolation":"STEP",
					"output":26
				},
				{
					"input":10,
					"interpolation":"LINEAR",
					"output":27
				},
				{
					"input":7,
					"interpolation":"LINEAR",
					"output":28
				},
				{
					"input":10,
					"interpolation":"STEP",
					"output":29
				},
				{
					"input":10,
					"interpolation":"LINEAR",
					"output":30
				},
				{
					"input":7,
					"interpolation":"LINEAR",
					"output":31
				},
				{
					"input":10,
					"interpolation":"LINEAR",
					"output":32
				},
				{
					"input":10,
					"interpolation":"LINEAR",
					"output":33
				},
				{
					"input":7,
					"interpolation":"LINEAR",
					"output":34
				},
				{
					"input":10,
					"interpolation":"LINEAR",
					"output":35
				},
				{
					"input":10,
					"interpolation":"LINEAR",
					"output":36
				},
				{
					"input":7,
					"interpolation":"LINEAR",
					"output":37
				},
				{
					"input":10,
					"interpolation":"LINEAR",
					"output":38
				},
				{
					"input":10,
					"interpolation":"LINEAR",
					"output":39
				},
				{
					"input":7,
					"interpolation":"LINEAR",
					"output":40
				},
				{
					"input":10,
					"interpolation":"LINEAR",
					"output":41
				},
				{
					"input":10,
					"interpolation":"LINEAR",
					"output":42
				},
				{
					"input":7,
					"interpolation":"LINEAR",
					"output":43
				},
				{
					"input":10,
					"interpolation":"STEP",
					"output":44
				},
				{
					"input":10,
					"interpolation":"LINEAR",
					"output":45
				},
				{
					"input":7,
					"interpolation":"LINEAR",
					"output":46
				},
				{
					"input":10,
					"interpolation":"LINEAR",
					"output":47
				},
				{
					"input":10,
					"interpolation":"LINEAR",
					"output":48
				},
				{
					"input":7,
					"interpolation":"LINEAR",
					"output":49
				},
				{
					"input":10,
					"interpolation":"STEP",
					"output":50
				},
				{
					"input":10,
					"interpolation":"LINEAR",
					"output":51
				},
				{
					"input":7,
					"interpolation":"LINEAR",
					"output":52
				},
				{
					"input":10,
					"interpolation":"LINEAR",
					"output":53
				},
				{
					"input":10,
					"interpolation":"LINEAR",
					"output":54
				},
				{
					"input":7,
					"interpolation":"LINEAR",
					"output":55
				},
				{
					"input":10,
					"interpolation":"LINEAR",
					"output":56
				},
				{
					"input":10,
					"interpolation":"LINEAR",
					"output":57
				},
				{
					"input":7,
					"interpolation":"LINEAR",
					"output":58
				},
				{
					"input":10,
					"interpolation":"LINEAR",
					"output":59
				},
				{
					"input":10,
					"interpolation":"LINEAR",
					"output":60
				},
				{
					"input":7,
					"interpolation":"LINEAR",
					"output":61
				},
				{
					"input":10,
					"interpolation":"LINEAR",
					"output":62
				},
				{
					"input":10,
					"interpolation":"LINEAR",
					"output":63
				},
				{
					"input":7,
					"interpolation":"LINEAR",
					"output":64
				},
				{
					"input":10,
					"interpolation":"STEP",
					"output":65
				},
				{
					"input":10,
					"interpolation":"LINEAR",
					"output":66
				},
				{
					"input":7,
					"interpolation":"LINEAR",
					"output":67
				},
				{
					"input":10,
					"interpolation":"STEP",
					"output":68
				},
				{
					"input":10,
					"interpolation":"LINEAR",
					"output":69
				},
				{
					"input":7,
					"interpolation":"LINEAR",
					"output":70
				},
				{
					"input":10,
					"interpolation":"STEP",
					"output":71
				},
				{
					"input":10,
					"interpolation":"LINEAR",
					"output":72
				},
				{
					"input":7,
					"interpolation":"LINEAR",
					"output":73
				},
				{
					"input":10,
					"interpolation":"STEP",
					"output":74
				},
				{
					"input":10,
					"interpolation":"LINEAR",
					"output":75
				},
				{
					"input":7,
					"interpolation":"LINEAR",
					"output":76
				},
				{
					"input":10,
					"interpolation":"LINEAR",
					"output":77
				},
				{
					"input":10,
					"interpolation":"LINEAR",
					"output":78
				},
				{
					"input":7,
					"interpolation":"LINEAR",
					"output":79
				},
				{
					"input":10,
					"interpolation":"STEP",
					"output":80
				},
				{
					"input":10,
					"interpolation":"LINEAR",
					"output":81
				},
				{
					"input":7,
					"interpolation":"LINEAR",
					"output":82
				},
				{
					"input":10,
					"interpolation":"LINEAR",
					"output":83
				},
				{
					"input":10,
					"interpolation":"LINEAR",
					"output":84
				},
				{
					"input":7,
					"interpolation":"LINEAR",
					"output":85
				},
				{
					"input":10,
					"interpolation":"STEP",
					"output":86
				},
				{
					"input":10,
					"interpolation":"LINEAR",
					"output":87
				},
				{
					"input":7,
					"interpolation":"LINEAR",
					"output":88
				},
				{
					"input":10,
					"interpolation":"LINEAR",
					"output":89
				},
				{
					"input":10,
					"interpolation":"LINEAR",
					"output":90
				},
				{
					"input":7,
					"interpolation":"LINEAR",
					"output":91
				},
				{
					"input":10,
					"interpolation":"LINEAR",
					"output":92
				}
			]
		}
	],
	"materials":[
		{
			"doubleSided":true,
			"name":"standardSurface2",
			"pbrMetallicRoughness":{
				"metallicFactor":0,
				"roughnessFactor":0.5527864098548889
			}
		}
	],
	"meshes":[
		{
			"name":"Mesh",
			"primitives":[
				{
					"attributes":{
						"POSITION":0,
						"NORMAL":1,
						"TEXCOORD_0":2,
						"JOINTS_0":3,
						"WEIGHTS_0":4
					},
					"indices":5,
					"material":0
				}
			]
		}
	],
	"skins":[
		{
			"inverseBindMatrices":6,
			"joints":[
				28,
				19,
				18,
				17,
				2,
				1,
				9,
				8,
				7,
				6,
				5,
				4,
				3,
				16,
				15,
				14,
				13,
				12,
				11,
				10,
				23,
				22,
				21,
				20,
				27,
				26,
				25,
				24
			],
			"name":"group"
		}
	],
	"accessors":[
		{
			"bufferView":0,
			"componentType":5126,
			"count":3776,
			"max":[
				0.9242364168167114,
				2.3612160682678223,
				0.22677648067474365
			],
			"min":[
				-0.9535052180290222,
				0.3876230716705322,
				-0.2606668770313263
			],
			"type":"VEC3"
		},
		{
			"bufferView":1,
			"componentType":5126,
			"count":3776,
			"type":"VEC3"
		},
		{
			"bufferView":2,
			"componentType":5126,
			"count":3776,
			"type":"VEC2"
		},
		{
			"bufferView":3,
			"componentType":5121,
			"count":3776,
			"type":"VEC4"
		},
		{
			"bufferView":4,
			"componentType":5126,
			"count":3776,
			"type":"VEC4"
		},
		{
			"bufferView":5,
			"componentType":5123,
			"count":5676,
			"type":"SCALAR"
		},
		{
			"bufferView":6,
			"componentType":5126,
			"count":28,
			"type":"MAT4"
		},
		{
			"bufferView":7,
			"componentType":5126,
			"count":30,
			"max":[
				1
			],
			"min":[
				0.03333333333333333
			],
			"type":"SCALAR"
		},
		{
			"bufferView":8,
			"componentType":5126,
			"count":30,
			"type":"VEC3"
		},
		{
			"bufferView":9,
			"componentType":5126,
			"count":30,
			"type":"VEC4"
		},
		{
			"bufferView":10,
			"componentType":5126,
			"count":2,
			"max":[
				1
			],
			"min":[
				0.03333333333333333
			],
			"type":"SCALAR"
		},
		{
			"bufferView":11,
			"componentType":5126,
			"count":2,
			"type":"VEC3"
		},
		{
			"bufferView":12,
			"componentType":5126,
			"count":2,
			"type":"VEC3"
		},
		{
			"bufferView":13,
			"componentType":5126,
			"count":30,
			"type":"VEC4"
		},
		{
			"bufferView":14,
			"componentType":5126,
			"count":2,
			"type":"VEC3"
		},
		{
			"bufferView":15,
			"componentType":5126,
			"count":2,
			"type":"VEC3"
		},
		{
			"bufferView":16,
			"componentType":5126,
			"count":30,
			"type":"VEC4"
		},
		{
			"bufferView":17,
			"componentType":5126,
			"count":2,
			"type":"VEC3"
		},
		{
			"bufferView":18,
			"componentType":5126,
			"count":2,
			"type":"VEC3"
		},
		{
			"bufferView":19,
			"componentType":5126,
			"count":30,
			"type":"VEC4"
		},
		{
			"bufferView":20,
			"componentType":5126,
			"count":2,
			"type":"VEC3"
		},
		{
			"bufferView":21,
			"componentType":5126,
			"count":2,
			"type":"VEC3"
		},
		{
			"bufferView":22,
			"componentType":5126,
			"count":30,
			"type":"VEC4"
		},
		{
			"bufferView":23,
			"componentType":5126,
			"count":2,
			"type":"VEC3"
		},
		{
			"bufferView":24,
			"componentType":5126,
			"count":2,
			"type":"VEC3"
		},
		{
			"bufferView":25,
			"componentType":5126,
			"count":30,
			"type":"VEC4"
		},
		{
			"bufferView":26,
			"componentType":5126,
			"count":2,
			"type":"VEC3"
		},
		{
			"bufferView":27,
			"componentType":5126,
			"count":2,
			"type":"VEC3"
		},
		{
			"bufferView":28,
			"componentType":5126,
			"count":30,
			"type":"VEC4"
		},
		{
			"bufferView":29,
			"componentType":5126,
			"count":2,
			"type":"VEC3"
		},
		{
			"bufferView":30,
			"componentType":5126,
			"count":2,
			"type":"VEC3"
		},
		{
			"bufferView":31,
			"componentType":5126,
			"count":30,
			"type":"VEC4"
		},
		{
			"bufferView":32,
			"componentType":5126,
			"count":2,
			"type":"VEC3"
		},
		{
			"bufferView":33,
			"componentType":5126,
			"count":2,
			"type":"VEC3"
		},
		{
			"bufferView":34,
			"componentType":5126,
			"count":30,
			"type":"VEC4"
		},
		{
			"bufferView":35,
			"componentType":5126,
			"count":2,
			"type":"VEC3"
		},
		{
			"bufferView":36,
			"componentType":5126,
			"count":2,
			"type":"VEC3"
		},
		{
			"bufferView":37,
			"componentType":5126,
			"count":30,
			"type":"VEC4"
		},
		{
			"bufferView":38,
			"componentType":5126,
			"count":2,
			"type":"VEC3"
		},
		{
			"bufferView":39,
			"componentType":5126,
			"count":2,
			"type":"VEC3"
		},
		{
			"bufferView":40,
			"componentType":5126,
			"count":30,
			"type":"VEC4"
		},
		{
			"bufferView":41,
			"componentType":5126,
			"count":2,
			"type":"VEC3"
		},
		{
			"bufferView":42,
			"componentType":5126,
			"count":2,
			"type":"VEC3"
		},
		{
			"bufferView":43,
			"componentType":5126,
			"count":30,
			"type":"VEC4"
		},
		{
			"bufferView":44,
			"componentType":5126,
			"count":2,
			"type":"VEC3"
		},
		{
			"bufferView":45,
			"componentType":5126,
			"count":2,
			"type":"VEC3"
		},
		{
			"bufferView":46,
			"componentType":5126,
			"count":30,
			"type":"VEC4"
		},
		{
			"bufferView":47,
			"componentType":5126,
			"count":2,
			"type":"VEC3"
		},
		{
			"bufferView":48,
			"componentType":5126,
			"count":2,
			"type":"VEC3"
		},
		{
			"bufferView":49,
			"componentType":5126,
			"count":30,
			"type":"VEC4"
		},
		{
			"bufferView":50,
			"componentType":5126,
			"count":2,
			"type":"VEC3"
		},
		{
			"bufferView":51,
			"componentType":5126,
			"count":2,
			"type":"VEC3"
		},
		{
			"bufferView":52,
			"componentType":5126,
			"count":30,
			"type":"VEC4"
		},
		{
			"bufferView":53,
			"componentType":5126,
			"count":2,
			"type":"VEC3"
		},
		{
			"bufferView":54,
			"componentType":5126,
			"count":2,
			"type":"VEC3"
		},
		{
			"bufferView":55,
			"componentType":5126,
			"count":30,
			"type":"VEC4"
		},
		{
			"bufferView":56,
			"componentType":5126,
			"count":2,
			"type":"VEC3"
		},
		{
			"bufferView":57,
			"componentType":5126,
			"count":2,
			"type":"VEC3"
		},
		{
			"bufferView":58,
			"componentType":5126,
			"count":30,
			"type":"VEC4"
		},
		{
			"bufferView":59,
			"componentType":5126,
			"count":2,
			"type":"VEC3"
		},
		{
			"bufferView":60,
			"componentType":5126,
			"count":2,
			"type":"VEC3"
		},
		{
			"bufferView":61,
			"componentType":5126,
			"count":30,
			"type":"VEC4"
		},
		{
			"bufferView":62,
			"componentType":5126,
			"count":2,
			"type":"VEC3"
		},
		{
			"bufferView":63,
			"componentType":5126,
			"count":2,
			"type":"VEC3"
		},
		{
			"bufferView":64,
			"componentType":5126,
			"count":30,
			"type":"VEC4"
		},
		{
			"bufferView":65,
			"componentType":5126,
			"count":2,
			"type":"VEC3"
		},
		{
			"bufferView":66,
			"componentType":5126,
			"count":2,
			"type":"VEC3"
		},
		{
			"bufferView":67,
			"componentType":5126,
			"count":30,
			"type":"VEC4"
		},
		{
			"bufferView":68,
			"componentType":5126,
			"count":2,
			"type":"VEC3"
		},
		{
			"bufferView":69,
			"componentType":5126,
			"count":2,
			"type":"VEC3"
		},
		{
			"bufferView":70,
			"componentType":5126,
			"count":30,
			"type":"VEC4"
		},
		{
			"bufferView":71,
			"componentType":5126,
			"count":2,
			"type":"VEC3"
		},
		{
			"bufferView":72,
			"componentType":5126,
			"count":2,
			"type":"VEC3"
		},
		{
			"bufferView":73,
			"componentType":5126,
			"count":30,
			"type":"VEC4"
		},
		{
			"bufferView":74,
			"componentType":5126,
			"count":2,
			"type":"VEC3"
		},
		{
			"bufferView":75,
			"componentType":5126,
			"count":2,
			"type":"VEC3"
		},
		{
			"bufferView":76,
			"componentType":5126,
			"count":30,
			"type":"VEC4"
		},
		{
			"bufferView":77,
			"componentType":5126,
			"count":2,
			"type":"VEC3"
		},
		{
			"bufferView":78,
			"componentType":5126,
			"count":2,
			"type":"VEC3"
		},
		{
			"bufferView":79,
			"componentType":5126,
			"count":30,
			"type":"VEC4"
		},
		{
			"bufferView":80,
			"componentType":5126,
			"count":2,
			"type":"VEC3"
		},
		{
			"bufferView":81,
			"componentType":5126,
			"count":2,
			"type":"VEC3"
		},
		{
			"bufferView":82,
			"componentType":5126,
			"count":30,
			"type":"VEC4"
		},
		{
			"bufferView":83,
			"componentType":5126,
			"count":2,
			"type":"VEC3"
		},
		{
			"bufferView":84,
			"componentType":5126,
			"count":2,
			"type":"VEC3"
		},
		{
			"bufferView":85,
			"componentType":5126,
			"count":30,
			"type":"VEC4"
		},
		{
			"bufferView":86,
			"componentType":5126,
			"count":2,
			"type":"VEC3"
		},
		{
			"bufferView":87,
			"componentType":5126,
			"count":2,
			"type":"VEC3"
		},
		{
			"bufferView":88,
			"componentType":5126,
			"count":30,
			"type":"VEC4"
		},
		{
			"bufferView":89,
			"componentType":5126,
			"count":2,
			"type":"VEC3"
		},
		{
			"bufferView":90,
			"componentType":5126,
			"count":2,
			"type":"VEC3"
		},
		{
			"bufferView":91,
			"componentType":5126,
			"count":30,
			"type":"VEC4"
		},
		{
			"bufferView":92,
			"componentType":5126,
			"count":2,
			"type":"VEC3"
		}
	],
	"bufferViews":[
		{
			"buffer":0,
			"byteLength":45312,
			"byteOffset":0,
			"target":34962
		},
		{
			"buffer":0,
			"byteLength":45312,
			"byteOffset":45312,
			"target":34962
		},
		{
			"buffer":0,
			"byteLength":30208,
			"byteOffset":90624,
			"target":34962
		},
		{
			"buffer":0,
			"byteLength":15104,
			"byteOffset":120832,
			"target":34962
		},
		{
			"buffer":0,
			"byteLength":60416,
			"byteOffset":135936,
			"target":34962
		},
		{
			"buffer":0,
			"byteLength":11352,
			"byteOffset":196352,
			"target":34963
		},
		{
			"buffer":0,
			"byteLength":1792,
			"byteOffset":207704
		},
		{
			"buffer":0,
			"byteLength":120,
			"byteOffset":209496
		},
		{
			"buffer":0,
			"byteLength":360,
			"byteOffset":209616
		},
		{
			"buffer":0,
			"byteLength":480,
			"byteOffset":209976
		},
		{
			"buffer":0,
			"byteLength":8,
			"byteOffset":210456
		},
		{
			"buffer":0,
			"byteLength":24,
			"byteOffset":210464
		},
		{
			"buffer":0,
			"byteLength":24,
			"byteOffset":210488
		},
		{
			"buffer":0,
			"byteLength":480,
			"byteOffset":210512
		},
		{
			"buffer":0,
			"byteLength":24,
			"byteOffset":210992
		},
		{
			"buffer":0,
			"byteLength":24,
			"byteOffset":211016
		},
		{
			"buffer":0,
			"byteLength":480,
			"byteOffset":211040
		},
		{
			"buffer":0,
			"byteLength":24,
			"byteOffset":211520
		},
		{
			"buffer":0,
			"byteLength":24,
			"byteOffset":211544
		},
		{
			"buffer":0,
			"byteLength":480,
			"byteOffset":211568
		},
		{
			"buffer":0,
			"byteLength":24,
			"byteOffset":212048
		},
		{
			"buffer":0,
			"byteLength":24,
			"byteOffset":212072
		},
		{
			"buffer":0,
			"byteLength":480,
			"byteOffset":212096
		},
		{
			"buffer":0,
			"byteLength":24,
			"byteOffset":212576
		},
		{
			"buffer":0,
			"byteLength":24,
			"byteOffset":212600
		},
		{
			"buffer":0,
			"byteLength":480,
			"byteOffset":212624
		},
		{
			"buffer":0,
			"byteLength":24,
			"byteOffset":213104
		},
		{
			"buffer":0,
			"byteLength":24,
			"byteOffset":213128
		},
		{
			"buffer":0,
			"byteLength":480,
			"byteOffset":213152
		},
		{
			"buffer":0,
			"byteLength":24,
			"byteOffset":213632
		},
		{
			"buffer":0,
			"byteLength":24,
			"byteOffset":213656
		},
		{
			"buffer":0,
			"byteLength":480,
			"byteOffset":213680
		},
		{
			"buffer":0,
			"byteLength":24,
			"byteOffset":214160
		},
		{
			"buffer":0,
			"byteLength":24,
			"byteOffset":214184
		},
		{
			"buffer":0,
			"byteLength":480,
			"byteOffset":214208
		},
		{
			"buffer":0,
			"byteLength":24,
			"byteOffset":214688
		},
		{
			"buffer":0,
			"byteLength":24,
			"byteOffset":214712
		},
		{
			"buffer":0,
			"byteLength":480,
			"byteOffset":214736
		},
		{
			"buffer":0,
			"byteLength":24,
			"byteOffset":215216
		},
		{
			"buffer":0,
			"byteLength":24,
			"byteOffset":215240
		},
		{
			"buffer":0,
			"byteLength":480,
			"byteOffset":215264
		},
		{
			"buffer":0,
			"byteLength":24,
			"byteOffset":215744
		},
		{
			"buffer":0,
			"byteLength":24,
			"byteOffset":215768
		},
		{
			"buffer":0,
			"byteLength":480,
			"byteOffset":215792
		},
		{
			"buffer":0,
			"byteLength":24,
			"byteOffset":216272
		},
		{
			"buffer":0,
			"byteLength":24,
			"byteOffset":216296
		},
		{
			"buffer":0,
			"byteLength":480,
			"byteOffset":216320
		},
		{
			"buffer":0,
			"byteLength":24,
			"byteOffset":216800
		},
		{
			"buffer":0,
			"byteLength":24,
			"byteOffset":216824
		},
		{
			"buffer":0,
			"byteLength":480,
			"byteOffset":216848
		},
		{
			"buffer":0,
			"byteLength":24,
			"byteOffset":217328
		},
		{
			"buffer":0,
			"byteLength":24,
			"byteOffset":217352
		},
		{
			"buffer":0,
			"byteLength":480,
			"byteOffset":217376
		},
		{
			"buffer":0,
			"byteLength":24,
			"byteOffset":217856
		},
		{
			"buffer":0,
			"byteLength":24,
			"byteOffset":217880
		},
		{
			"buffer":0,
			"byteLength":480,
			"byteOffset":217904
		},
		{
			"buffer":0,
			"byteLength":24,
			"byteOffset":218384
		},
		{
			"buffer":0,
			"byteLength":24,
			"byteOffset":218408
		},
		{
			"buffer":0,
			"byteLength":480,
			"byteOffset":218432
		},
		{
			"buffer":0,
			"byteLength":24,
			"byteOffset":218912
		},
		{
			"buffer":0,
			"byteLength":24,
			"byteOffset":218936
		},
		{
			"buffer":0,
			"byteLength":480,
			"byteOffset":218960
		},
		{
			"buffer":0,
			"byteLength":24,
			"byteOffset":219440
		},
		{
			"buffer":0,
			"byteLength":24,
			"byteOffset":219464
		},
		{
			"buffer":0,
			"byteLength":480,
			"byteOffset":219488
		},
		{
			"buffer":0,
			"byteLength":24,
			"byteOffset":219968
		},
		{
			"buffer":0,
			"byteLength":24,
			"byteOffset":219992
		},
		{
			"buffer":0,
			"byteLength":480,
			"byteOffset":220016
		},
		{
			"buffer":0,
			"byteLength":24,
			"byteOffset":220496
		},
		{
			"buffer":0,
			"byteLength":24,
			"byteOffset":220520
		},
		{
			"buffer":0,
			"byteLength":480,
			"byteOffset":220544
		},
		{
			"buffer":0,
			"byteLength":24,
			"byteOffset":221024
		},
		{
			"buffer":0,
			"byteLength":24,
			"byteOffset":221048
		},
		{
			"buffer":0,
			"byteLength":480,
			"byteOffset":221072
		},
		{
			"buffer":0,
			"byteLength":24,
			"byteOffset":221552
		},
		{
			"buffer":0,
			"byteLength":24,
			"byteOffset":221576
		},
		{
			"buffer":0,
			"byteLength":480,
			"byteOffset":221600
		},
		{
			"buffer":0,
			"byteLength":24,
			"byteOffset":222080
		},
		{
			"buffer":0,
			"byteLength":24,
			"byteOffset":222104
		},
		{
			"buffer":0,
			"byteLength":480,
			"byteOffset":222128
		},
		{
			"buffer":0,
			"byteLength":24,
			"byteOffset":222608
		},
		{
			"buffer":0,
			"byteLength":24,
			"byteOffset":222632
		},
		{
			"buffer":0,
			"byteLength":480,
			"byteOffset":222656
		},
		{
			"buffer":0,
			"byteLength":24,
			"byteOffset":223136
		},
		{
			"buffer":0,
			"byteLength":24,
			"byteOffset":223160
		},
		{
			"buffer":0,
			"byteLength":480,
			"byteOffset":223184
		},
		{
			"buffer":0,
			"byteLength":24,
			"byteOffset":223664
		},
		{
			"buffer":0,
			"byteLength":24,
			"byteOffset":223688
		},
		{
			"buffer":0,
			"byteLength":480,
			"byteOffset":223712
		},
		{
			"buffer":0,
			"byteLength":24,
			"byteOffset":224192
		},
		{
			"buffer":0,
			"byteLength":24,
			"byteOffset":224216
		},
		{
			"buffer":0,
			"byteLength":480,
			"byteOffset":224240
		},
		{
			"buffer":0,
			"byteLength":24,
			"byteOffset":224720
		}
	],
	"buffers":[
		{
			"byteLength":224744,
			"uri":"data:application/octet-stream;base64,"
		}
	]
}
