<?xml version="1.0" encoding="utf-8"?>
<COLLADA xmlns="http://www.collada.org/2005/11/COLLADASchema" version="1.4.1" xmlns:xsi="http://www.w3.org/2001/XMLSchema-instance">
  <asset>
    <contributor>
      <author>Blockbench user</author>
      <authoring_tool>Blockbench</authoring_tool>
    </contributor>
    <created>2023-10-29T01:49:29.260Z</created>
    <modified>2023-10-29T01:49:29.260Z</modified>
    <unit name="meter" meter="1.0"/>
    <up_axis>Y_UP</up_axis>
  </asset>
  <library_effects>
    <effect id="Material_0-effect">
      <profile_COMMON>
        <newparam sid="Image_0-surface">
          <surface type="2D">
            <init_from>Image_0</init_from>
          </surface>
        </newparam>
        <newparam sid="Image_0-sampler">
          <sampler2D>
            <source>Image_0-surface</source>
          </sampler2D>
        </newparam>
        <technique sid="common">
          <lambert>
            <emission>
              <color sid="emission">0 0 0 1</color>
            </emission>
            <diffuse>
              <texture texture="Image_0-sampler" texcoord="UVMap"/>
            </diffuse>
            <index_of_refraction>
              <float sid="ior">1.45</float>
            </index_of_refraction>
          </lambert>
        </technique>
      </profile_COMMON>
    </effect>
    <effect id="Material_1-effect">
      <profile_COMMON>
        <newparam sid="Image_1-surface">
          <surface type="2D">
            <init_from>Image_1</init_from>
          </surface>
        </newparam>
        <newparam sid="Image_1-sampler">
          <sampler2D>
            <source>Image_1-surface</source>
          </sampler2D>
        </newparam>
        <technique sid="common">
          <lambert>
            <emission>
              <color sid="emission">0 0 0 1</color>
            </emission>
            <diffuse>
              <texture texture="Image_1-sampler" texcoord="UVMap"/>
            </diffuse>
            <index_of_refraction>
              <float sid="ior">1.45</float>
            </index_of_refraction>
          </lambert>
        </technique>
      </profile_COMMON>
    </effect>
    <effect id="Material_2-effect">
      <profile_COMMON>
        <newparam sid="Image_2-surface">
          <surface type="2D">
            <init_from>Image_2</init_from>
          </surface>
        </newparam>
        <newparam sid="Image_2-sampler">
          <sampler2D>
            <source>Image_2-surface</source>
          </sampler2D>
        </newparam>
        <technique sid="common">
          <lambert>
            <emission>
              <color sid="emission">0 0 0 1</color>
            </emission>
            <diffuse>
              <texture texture="Image_2-sampler" texcoord="UVMap"/>
            </diffuse>
            <index_of_refraction>
              <float sid="ior">1.45</float>
            </index_of_refraction>
          </lambert>
        </technique>
      </profile_COMMON>
    </effect>
  </library_effects>
  <library_images>
    <image id="Image_0" name="Image_0">
      <init_from>machine_base.png</init_from>
    </image>
    <image id="Image_1" name="Image_1">
      <init_from>machine_top.png</init_from>
    </image>
    <image id="Image_2" name="Image_2">
      <init_from>varillas.png</init_from>
    </image>
  </library_images>
  <library_materials>
    <material id="Material_0-material" name="Material_0">
      <instance_effect url="#Material_0-effect"/>
    </material>
    <material id="Material_1-material" name="Material_1">
      <instance_effect url="#Material_1-effect"/>
    </material>
    <material id="Material_2-material" name="Material_2">
      <instance_effect url="#Material_2-effect"/>
    </material>
  </library_materials>
  <library_geometries>
    <geometry id="5017e89b-b372-f7f9-d97d-15e4ebdda6c9-mesh" name="cuboid">
      <mesh>
        <source id="5017e89b-b372-f7f9-d97d-15e4ebdda6c9-mesh-positions">
          <float_array id="5017e89b-b372-f7f9-d97d-15e4ebdda6c9-mesh-positions-array" count="180">1.46875 1.391667 0.4375 1.46875 1.391667 -0.4375 1.53125 0.891667 0.5 1.53125 0.891667 -0.5 0.59375 1.391667 0.4375 0.59375 1.391667 -0.4375 0.53125 0.891667 0.5 0.53125 0.891667 -0.5 1.36875 1.329167 0.3375 1.36875 1.329167 -0.3375 0.69375 1.329167 0.3375 0.69375 1.329167 -0.3375 0.96875 0.329167 0.5 0.53125 0.329167 0.5 0.96875 0.329167 -0.5 0.53125 0.329167 -0.5 1 0.579167 0.53125 1 0.579167 -0.53125 1.5625 0.891667 -0.53125 1.5625 0.891667 0.53125 0.5 0.579167 0.53125 0.5 0.891667 0.53125 0.5 0.579167 -0.53125 0.5 0.891667 -0.53125 -0.46875 1.391667 0.4375 -0.46875 1.391667 -0.4375 -0.53125 0.891667 0.5 -0.53125 0.891667 -0.5 0.40625 1.391667 0.4375 0.40625 1.391667 -0.4375 0.46875 0.891667 0.5 0.46875 0.891667 -0.5 -0.36875 1.329167 0.3375 -0.36875 1.329167 -0.3375 0.30625 1.329167 0.3375 0.30625 1.329167 -0.3375 0.03125 0.329167 0.5 0.46875 0.329167 0.5 0.03125 0.329167 -0.5 0.46875 0.329167 -0.5 0 0.579167 0.53125 0 0.579167 -0.53125 -0.5625 0.891667 -0.53125 -0.5625 0.891667 0.53125 0.5 0.579167 0.53125 0.5 0.891667 0.53125 0.5 0.579167 -0.53125 0.5 0.891667 -0.53125 0.03125 0.266667 0.5 0.03125 0.266667 -0.5 0.96875 0.266667 0.5 0.96875 0.266667 -0.5 0.5 0.266667 -0.5 0.96875 0.016667 0.5 0.5 0.016667 0.5 0.96875 0.016667 -0.5 0.5 0.016667 -0.5 0.03125 0.016667 0.5 0.03125 0.016667 -0.5 0.5 0.266667 0.5</float_array>
          <technique_common>
            <accessor source="#5017e89b-b372-f7f9-d97d-15e4ebdda6c9-mesh-positions-array" count="60" stride="3">
              <param name="X" type="float"/>
              <param name="Y" type="float"/>
              <param name="Z" type="float"/>
            </accessor>
          </technique_common>
        </source>
        <source id="5017e89b-b372-f7f9-d97d-15e4ebdda6c9-mesh-normals">
          <float_array id="5017e89b-b372-f7f9-d97d-15e4ebdda6c9-mesh-normals-array" count="171">0.992278 0.124035 0 -0.992278 0.124035 0 0 1 0 0 0.124035 0.992278 0 0.124035 -0.992278 0 0.847998 -0.529999 -0.529999 0.847998 0 0 0.847998 0.529999 0.529999 0.847998 0 0.485643 -0.874157 0 0 0 1 -1 0 0 0 0 -1 0.992278 -0.124035 0 0 1 0 0 -0.124035 0.992278 0 1 0 -0.992278 -0.124035 0 0 1 0 0 -0.124035 -0.992278 0 1 0 -0.992278 0.124035 0 0.992278 0.124035 0 0 1 0 0 0.124035 0.992278 0 0.124035 -0.992278 0 0.847998 -0.529999 0.529999 0.847998 0 0 0.847998 0.529999 -0.529999 0.847998 0 -0.485643 -0.874157 0 0 0 1 1 0 0 0 0 -1 -0.992278 -0.124035 0 0 1 0 0 -0.124035 0.992278 0 1 0 0.992278 -0.124035 0 0 1 0 0 -0.124035 -0.992278 0 1 0 0 0 1 -1 0 0 0 0 -1 0.894427 0.447214 0 1 0 0 0 0 1 -0.894427 0.447214 0 0 0 -1 1 0 0 0 0 1 0 0 -1 0 0 1 -1 0 0 0 0 -1 1 0 0</float_array>
          <technique_common>
            <accessor source="#5017e89b-b372-f7f9-d97d-15e4ebdda6c9-mesh-normals-array" count="57" stride="3">
              <param name="X" type="float"/>
              <param name="Y" type="float"/>
              <param name="Z" type="float"/>
            </accessor>
          </technique_common>
        </source>
        <source id="5017e89b-b372-f7f9-d97d-15e4ebdda6c9-mesh-map-0">
          <float_array id="5017e89b-b372-f7f9-d97d-15e4ebdda6c9-mesh-map-0-array" count="456">0.59375 0.929688 0.484375 0.929688 0.476563 0.867188 0.601563 0.867188 0.617188 0.796875 0.609375 0.859375 0.5 0.859375 0.492188 0.796875 0.016406 0.619634 0.100781 0.619634 0.100781 0.704009 0.016406 0.704009 0.390625 0.5 0.382813 0.5625 0.273438 0.5625 0.265625 0.5 0.117188 0.53125 0.007813 0.53125 0 0.46875 0.125 0.46875 0.100781 0.619634 0.016406 0.619634 0.003906 0.604894 0.113281 0.604894 0.100781 0.704009 0.100781 0.619634 0.115522 0.607134 0.115522 0.716509 0.016406 0.704009 0.100781 0.704009 0.113281 0.71875 0.003906 0.71875 0.016406 0.619634 0.016406 0.704009 0.001666 0.716509 0.001666 0.607134 0.125 0.539063 0.257813 0.539063 0.257813 0.617188 0.125 0.617188 0.140625 0.828125 0.203125 0.828125 0.273438 0.867188 0.140625 0.867188 0.351563 0.8125 0.484375 0.8125 0.484375 0.851563 0.351563 0.851563 0.28125 0.773438 0.34375 0.773438 0.34375 0.8125 0.210938 0.8125 0.539063 0.585938 0.40625 0.585938 0.410156 0.554445 0.535156 0.554445 0.132813 0.867188 0.132813 1 0.128906 0.996094 0.128906 0.871094 0.203125 0.828125 0.140625 0.828125 0.144531 0.796632 0.199219 0.796632 0 0.867188 0.132813 0.867188 0.128906 0.871094 0.003906 0.871094 0.484375 0.8125 0.351563 0.8125 0.355469 0.781007 0.480469 0.781007 0 1 0 0.867188 0.003906 0.871094 0.003906 0.996094 0.34375 0.773438 0.28125 0.773438 0.285156 0.741945 0.339844 0.741945 0.132813 1 0 1 0.003906 0.996094 0.128906 0.996094 0.523438 0.4375 0.515625 0.5 0.40625 0.5 0.398438 0.4375 0.382813 0.492188 0.273438 0.492188 0.265625 0.429688 0.390625 0.429688 0.297656 0.672759 0.297656 0.588384 0.382031 0.588384 0.382031 0.672759 0.25 0.53125 0.140625 0.53125 0.132813 0.46875 0.257813 0.46875 0.601563 0.9375 0.59375 1 0.484375 1 0.476563 0.9375 0.394531 0.573644 0.382031 0.588384 0.297656 0.588384 0.285156 0.573644 0.282916 0.575884 0.297656 0.588384 0.297656 0.672759 0.282916 0.685259 0.285156 0.6875 0.297656 0.672759 0.382031 0.672759 0.394531 0.6875 0.396772 0.685259 0.382031 0.672759 0.382031 0.588384 0.396772 0.575884 0.40625 0.757813 0.40625 0.679688 0.539063 0.679688 0.539063 0.757813 0.140625 0.742188 0.210938 0.703125 0.273438 0.703125 0.273438 0.742188 0.335938 0.945313 0.335938 0.90625 0.46875 0.90625 0.46875 0.945313 0.265625 1 0.265625 0.960938 0.328125 0.960938 0.398438 1 0.535156 0.640381 0.539063 0.671875 0.40625 0.671875 0.410156 0.640381 0.003906 0.855469 0 0.859375 0 0.726563 0.003906 0.730469 0.269531 0.671632 0.273438 0.703125 0.210938 0.703125 0.214844 0.671632 0.003906 0.730469 0 0.726563 0.132813 0.726563 0.128906 0.730469 0.464844 0.874757 0.46875 0.90625 0.335938 0.90625 0.339844 0.874757 0.128906 0.730469 0.132813 0.726563 0.132813 0.859375 0.128906 0.855469 0.324219 0.929445 0.328125 0.960938 0.265625 0.960938 0.269531 0.929445 0.128906 0.855469 0.132813 0.859375 0 0.859375 0.003906 0.855469 0.214844 0.66382 0.273438 0.66382 0.269531 0.671632 0.214844 0.671632 0.410156 0.632569 0.535156 0.632569 0.535156 0.640381 0.410156 0.640381 0.265625 0.921632 0.324219 0.921632 0.324219 0.929445 0.269531 0.929445 0.339844 0.866022 0.464844 0.866022 0.464844 0.874757 0.339844 0.874757 0.410156 0.546632 0.535156 0.546632 0.535156 0.554445 0.410156 0.554445 0.140625 0.78882 0.199219 0.78882 0.199219 0.796632 0.144531 0.796632 0.355469 0.772273 0.480469 0.772273 0.480469 0.781007 0.355469 0.781007 0.285156 0.734132 0.34375 0.734132 0.339844 0.741945 0.285156 0.741945 0.410156 0.515382 0.535156 0.515382 0.535156 0.546632 0.410156 0.546632 0.140625 0.75757 0.199219 0.75757 0.199219 0.78882 0.140625 0.78882 0.285156 0.702882 0.34375 0.702882 0.34375 0.734132 0.285156 0.734132 0.214844 0.63257 0.273438 0.63257 0.273438 0.66382 0.214844 0.66382 0.410156 0.601319 0.535156 0.601319 0.535156 0.632569 0.410156 0.632569 0.265625 0.890382 0.324219 0.890382 0.324219 0.921632 0.265625 0.921632 0 0.429688 0.125 0.429688 0.125 0.460938 0 0.460938</float_array>
          <technique_common>
            <accessor source="#5017e89b-b372-f7f9-d97d-15e4ebdda6c9-mesh-map-0-array" count="228" stride="2">
              <param name="S" type="float"/>
              <param name="T" type="float"/>
            </accessor>
          </technique_common>
        </source>
        <vertices id="5017e89b-b372-f7f9-d97d-15e4ebdda6c9-mesh-vertices">
          <input semantic="POSITION" source="#5017e89b-b372-f7f9-d97d-15e4ebdda6c9-mesh-positions"/>
        </vertices>
        <polylist material="Material_1-material" count="6">
          <input semantic="VERTEX" source="#5017e89b-b372-f7f9-d97d-15e4ebdda6c9-mesh-vertices" offset="0"/>
          <input semantic="NORMAL" source="#5017e89b-b372-f7f9-d97d-15e4ebdda6c9-mesh-normals" offset="1"/>
          <input semantic="TEXCOORD" source="#5017e89b-b372-f7f9-d97d-15e4ebdda6c9-mesh-map-0" offset="2" set="0"/>
          <vcount>4 4 4 4 4 4 4 4 4 4 4 4 4 4 4 4 4 4 4 4 4 4 4 4 4 4 4 4 4 4 4 4 4 4 4 4 4 4 4 4 4 4 4 4 4 4 4 4 4 4 4 4 4 4 4 4 4</vcount>
          <p>1 0 0 0 0 1 2 0 2 3 0 3 6 1 4 4 1 5 5 1 6 7 1 7 10 2 8 8 2 9 9 2 10 11 2 11 2 3 12 0 3 13 4 3 14 6 3 15 5 4 16 1 4 17 3 4 18 7 4 19 8 5 20 10 5 21 4 5 22 0 5 23 9 6 24 8 6 25 0 6 26 1 6 27 11 7 28 9 7 29 1 7 30 5 7 31 10 8 32 11 8 33 5 8 34 4 8 35 16 9 36 17 9 37 18 9 38 19 9 39 20 10 40 16 10 41 19 10 42 21 10 43 22 11 44 20 11 45 21 11 46 23 11 47 17 12 48 22 12 49 23 12 50 18 12 51 17 13 52 16 13 53 12 13 54 14 13 55 19 14 56 18 14 57 3 14 58 2 14 59 16 15 60 20 15 61 13 15 62 12 15 63 21 16 64 19 16 65 2 16 66 6 16 67 20 17 68 22 17 69 15 17 70 13 17 71 23 18 72 21 18 73 6 18 74 7 18 75 22 19 76 17 19 77 14 19 78 15 19 79 18 20 80 23 20 81 7 20 82 3 20 83 26 21 84 24 21 85 25 21 86 27 21 87 29 22 88 28 22 89 30 22 90 31 22 91 33 23 92 32 23 93 34 23 94 35 23 95 28 24 96 24 24 97 26 24 98 30 24 99 27 25 100 25 25 101 29 25 102 31 25 103 28 26 104 34 26 105 32 26 106 24 26 107 24 27 108 32 27 109 33 27 110 25 27 111 25 28 112 33 28 113 35 28 114 29 28 115 29 29 116 35 29 117 34 29 118 28 29 119 42 30 120 41 30 121 40 30 122 43 30 123 43 31 124 40 31 125 44 31 126 45 31 127 45 32 128 44 32 129 46 32 130 47 32 131 47 33 132 46 33 133 41 33 134 42 33 135 36 34 136 40 34 137 41 34 138 38 34 139 27 35 140 42 35 141 43 35 142 26 35 143 37 36 144 44 36 145 40 36 146 36 36 147 26 37 148 43 37 149 45 37 150 30 37 151 39 38 152 46 38 153 44 38 154 37 38 155 30 39 156 45 39 157 47 39 158 31 39 159 38 40 160 41 40 161 46 40 162 39 40 163 31 41 164 47 41 165 42 41 166 27 41 167 48 42 168 59 42 169 37 42 170 36 42 171 49 43 172 48 43 173 36 43 174 38 43 175 52 44 176 49 44 177 38 44 178 39 44 179 59 45 180 52 45 181 39 45 182 37 45 183 50 46 184 51 46 185 14 46 186 12 46 187 59 47 188 50 47 189 12 47 190 13 47 191 52 48 192 59 48 193 13 48 194 15 48 195 51 49 196 52 49 197 15 49 198 14 49 199 53 50 200 55 50 201 51 50 202 50 50 203 54 51 204 53 51 205 50 51 206 59 51 207 55 52 208 56 52 209 52 52 210 51 52 211 57 53 212 54 53 213 59 53 214 48 53 215 58 54 216 57 54 217 48 54 218 49 54 219 56 55 220 58 55 221 49 55 222 52 55 223 54 56 224 56 56 225 52 56 226 59 56 227</p>
        </polylist>
      </mesh>
    </geometry>
    <geometry id="bc27cf77-7aad-d0b6-6ad9-ec5168cea3f8-mesh" name="cuboid">
      <mesh>
        <source id="bc27cf77-7aad-d0b6-6ad9-ec5168cea3f8-mesh-positions">
          <float_array id="bc27cf77-7aad-d0b6-6ad9-ec5168cea3f8-mesh-positions-array" count="132">0.625 0.75 0.5625 0.625 0.75 -0.5625 0.625 0 0.5625 0.625 0 -0.5625 -0.75 0.75 0.5625 -0.75 0.75 -0.5625 -0.75 0 0.5625 -0.75 0 -0.5625 0.4875 0.675 -0.5625 0.4875 0.075 -0.5625 -0.6125 0.675 -0.5625 -0.6125 0.075 -0.5625 0.46 0.66 -0.5 0.46 0.09 -0.5 -0.585 0.66 -0.5 -0.585 0.09 -0.5 -0.75 0.75 0.125 -0.75 0 0.125 -0.75 0.75 -0.125 -0.75 0 -0.125 0.625 0 0.1875 0.625 0 -0.1875 0.625 0.75 0.1875 0.625 0.75 -0.1875 -0.8125 0.5 0.0625 -0.8125 0.5 -0.0625 -0.8125 0.3125 -0.0625 -0.8125 0.3125 0.0625 -0.875 0.5 0.0625 -0.875 0.5 -0.0625 -0.875 0.3125 -0.0625 -0.875 0.3125 0.0625 0.6875 0.5 -0.0625 0.6875 0.5 0.0625 0.625 0.75 0.125 0.625 0.75 -0.125 0.6875 0.3125 -0.0625 0.625 0 -0.125 0.75 0.3125 -0.0625 0.75 0.5 -0.0625 0.6875 0.3125 0.0625 0.625 0 0.125 0.75 0.5 0.0625 0.75 0.3125 0.0625</float_array>
          <technique_common>
            <accessor source="#bc27cf77-7aad-d0b6-6ad9-ec5168cea3f8-mesh-positions-array" count="44" stride="3">
              <param name="X" type="float"/>
              <param name="Y" type="float"/>
              <param name="Z" type="float"/>
            </accessor>
          </technique_common>
        </source>
        <source id="bc27cf77-7aad-d0b6-6ad9-ec5168cea3f8-mesh-normals">
          <float_array id="bc27cf77-7aad-d0b6-6ad9-ec5168cea3f8-mesh-normals-array" count="120">1 0 0 -1 0 0 0 -1 0 0 0 1 0 1 0 0 0 -1 0 0 -1 0 0 -1 0 0 -1 0 -0.972387 -0.233373 -0.915315 0 -0.402739 0 0.972387 -0.233373 0.915315 0 -0.402739 -1 0 0 -1 0 0 0 -1 0 0 -1 0 1 0 0 0 1 0 0 1 0 -0.970143 0.242536 0 -0.707107 0 -0.707107 -0.980581 -0.196116 0 -0.707107 0 0.707107 0 1 0 0 0 -1 0 -1 0 0 0 1 1 0 0 0.970143 0.242536 0 0.707107 0 -0.707107 0.980581 -0.196116 0 0.707107 0 0.707107 0 0 -1 0 0 1 1 0 0 1 0 0 0 1 0 0 -1 0 0 0 -1</float_array>
          <technique_common>
            <accessor source="#bc27cf77-7aad-d0b6-6ad9-ec5168cea3f8-mesh-normals-array" count="40" stride="3">
              <param name="X" type="float"/>
              <param name="Y" type="float"/>
              <param name="Z" type="float"/>
            </accessor>
          </technique_common>
        </source>
        <source id="bc27cf77-7aad-d0b6-6ad9-ec5168cea3f8-mesh-map-0">
          <float_array id="bc27cf77-7aad-d0b6-6ad9-ec5168cea3f8-mesh-map-0-array" count="320">0.46875 0.4375 0.375 0.4375 0.375 0.25 0.46875 0.25 0.484375 0.25 0.59375 0.25 0.59375 0.4375 0.484375 0.4375 0.34375 0.71875 0.34375 0.8125 0 0.828125 0 0.71875 0.703125 0.8125 0.703125 1 0.359375 1 0.359375 0.8125 0 0.703125 0 0.59375 0.34375 0.609375 0.34375 0.703125 0.39375 0.778125 0.66875 0.778125 0.703125 0.796875 0.359375 0.796875 0.39375 0.628125 0.39375 0.778125 0.359375 0.796875 0.359375 0.609375 0.66875 0.628125 0.39375 0.628125 0.359375 0.609375 0.703125 0.609375 0.66875 0.778125 0.66875 0.628125 0.703125 0.609375 0.703125 0.796875 0.619375 0.421875 0.880625 0.421875 0.8875 0.4375 0.6125 0.4375 0.296875 0.181875 0.296875 0.324375 0.28125 0.328125 0.28125 0.178125 0.880625 0.40625 0.619375 0.40625 0.6125 0.390625 0.8875 0.390625 0.671875 0.37125 0.671875 0.22875 0.6875 0.225 0.6875 0.375 0.109375 0.40625 0 0.40625 0 0.21875 0.109375 0.21875 0.671875 0.59375 0.640625 0.59375 0.640625 0.546875 0.671875 0.546875 0 1 0 0.890625 0.34375 0.90625 0.34375 1 0 0.890625 0 0.828125 0.34375 0.8125 0.34375 0.90625 0.125 0.21875 0.21875 0.21875 0.21875 0.40625 0.125 0.40625 0.34375 0.421875 0.34375 0.515625 0 0.53125 0 0.421875 0.34375 0.515625 0.34375 0.609375 0 0.59375 0 0.53125 0.59375 0.6875 0.625 0.6875 0.640625 0.75 0.578125 0.75 0.34375 0.296875 0.34375 0.34375 0.328125 0.40625 0.328125 0.21875 0.46875 0.75 0.4375 0.75 0.421875 0.671875 0.484375 0.671875 0.640625 0.3125 0.640625 0.265625 0.65625 0.1875 0.65625 0.375 0.71875 1 0.71875 0.96875 0.734375 0.96875 0.734375 1 0.703125 0.546875 0.703125 0.59375 0.6875 0.59375 0.6875 0.546875 0.71875 0.953125 0.71875 0.921875 0.734375 0.921875 0.734375 0.953125 0.6875 0.53125 0.6875 0.484375 0.703125 0.484375 0.703125 0.53125 0.671875 0.484375 0.671875 0.53125 0.640625 0.53125 0.640625 0.484375 0.25 0.40625 0.265625 0.34375 0.296875 0.34375 0.3125 0.40625 0.625 0.375 0.609375 0.3125 0.609375 0.265625 0.625 0.1875 0.5625 0.671875 0.546875 0.75 0.515625 0.75 0.5 0.671875 0.25 0.140625 0.265625 0.21875 0.265625 0.265625 0.25 0.328125 0.71875 0.375 0.703125 0.375 0.703125 0.328125 0.71875 0.328125 0.703125 0.265625 0.71875 0.265625 0.71875 0.3125 0.703125 0.3125 0.234375 0.40625 0.21875 0.40625 0.21875 0.21875 0.234375 0.21875 0.359375 0.25 0.375 0.25 0.375 0.4375 0.359375 0.4375 0 0.96875 0.015625 0.96875 0.015625 1 0 1 0 0.96875 0.015625 0.96875 0.015625 1 0 1 0.625 0.59375 0.359375 0.59375 0.359375 0.453125 0.625 0.453125</float_array>
          <technique_common>
            <accessor source="#bc27cf77-7aad-d0b6-6ad9-ec5168cea3f8-mesh-map-0-array" count="160" stride="2">
              <param name="S" type="float"/>
              <param name="T" type="float"/>
            </accessor>
          </technique_common>
        </source>
        <vertices id="bc27cf77-7aad-d0b6-6ad9-ec5168cea3f8-mesh-vertices">
          <input semantic="POSITION" source="#bc27cf77-7aad-d0b6-6ad9-ec5168cea3f8-mesh-positions"/>
        </vertices>
        <polylist material="Material_0-material" count="6">
          <input semantic="VERTEX" source="#bc27cf77-7aad-d0b6-6ad9-ec5168cea3f8-mesh-vertices" offset="0"/>
          <input semantic="NORMAL" source="#bc27cf77-7aad-d0b6-6ad9-ec5168cea3f8-mesh-normals" offset="1"/>
          <input semantic="TEXCOORD" source="#bc27cf77-7aad-d0b6-6ad9-ec5168cea3f8-mesh-map-0" offset="2" set="0"/>
          <vcount>4 4 4 4 4 4 4 4 4 4 4 4 4 4 4 4 4 4 4 4 4 4 4 4 4 4 4 4 4 4 4 4 4 4 4 4 4 4 4 4</vcount>
          <p>1 0 0 23 0 1 21 0 2 3 0 3 7 1 4 19 1 5 18 1 6 5 1 7 3 2 8 21 2 9 19 2 10 7 2 11 2 3 12 0 3 13 4 3 14 6 3 15 5 4 16 18 4 17 23 4 18 1 4 19 8 5 20 10 5 21 5 5 22 1 5 23 9 6 24 8 6 25 1 6 26 3 6 27 11 7 28 9 7 29 3 7 30 7 7 31 10 8 32 11 8 33 7 8 34 5 8 35 12 9 36 14 9 37 10 9 38 8 9 39 13 10 40 12 10 41 8 10 42 9 10 43 15 11 44 13 11 45 9 11 46 11 11 47 14 12 48 15 12 49 11 12 50 10 12 51 4 13 52 16 13 53 17 13 54 6 13 55 28 14 56 29 14 57 30 14 58 31 14 59 6 15 60 17 15 61 20 15 62 2 15 63 17 16 64 19 16 65 21 16 66 20 16 67 2 17 68 20 17 69 22 17 70 0 17 71 0 18 72 22 18 73 16 18 74 4 18 75 22 19 76 23 19 77 18 19 78 16 19 79 25 20 80 24 20 81 16 20 82 18 20 83 26 21 84 25 21 85 18 21 86 19 21 87 27 22 88 26 22 89 19 22 90 17 22 91 24 23 92 27 23 93 17 23 94 16 23 95 29 24 96 28 24 97 24 24 98 25 24 99 30 25 100 29 25 101 25 25 102 26 25 103 31 26 104 30 26 105 26 26 106 27 26 107 28 27 108 31 27 109 27 27 110 24 27 111 38 28 112 39 28 113 42 28 114 43 28 115 34 29 116 33 29 117 32 29 118 35 29 119 35 30 120 32 30 121 36 30 122 37 30 123 37 31 124 36 31 125 40 31 126 41 31 127 41 32 128 40 32 129 33 32 130 34 32 131 32 33 132 39 33 133 38 33 134 36 33 135 40 34 136 43 34 137 42 34 138 33 34 139 34 35 140 22 35 141 20 35 142 41 35 143 37 36 144 21 36 145 23 36 146 35 36 147 33 37 148 42 37 149 39 37 150 32 37 151 36 38 152 38 38 153 43 38 154 40 38 155 14 39 156 12 39 157 13 39 158 15 39 159</p>
        </polylist>
      </mesh>
    </geometry>
    <geometry id="b97122be-586e-92fe-1bea-41adff2f8b84-mesh" name="cuboid">
      <mesh>
        <source id="b97122be-586e-92fe-1bea-41adff2f8b84-mesh-positions">
          <float_array id="b97122be-586e-92fe-1bea-41adff2f8b84-mesh-positions-array" count="24">-0.877893 1.543706 0.0625 -0.877893 1.543706 -0.0625 -0.5625 0.75 0.0625 -0.5625 0.75 -0.0625 -0.997107 1.581294 0.0625 -0.997107 1.581294 -0.0625 -0.6875 0.75 0.0625 -0.6875 0.75 -0.0625</float_array>
          <technique_common>
            <accessor source="#b97122be-586e-92fe-1bea-41adff2f8b84-mesh-positions-array" count="8" stride="3">
              <param name="X" type="float"/>
              <param name="Y" type="float"/>
              <param name="Z" type="float"/>
            </accessor>
          </technique_common>
        </source>
        <source id="b97122be-586e-92fe-1bea-41adff2f8b84-mesh-normals">
          <float_array id="b97122be-586e-92fe-1bea-41adff2f8b84-mesh-normals-array" count="18">0.929318 0.36928 0 -0.937115 -0.349019 0 0.300706 0.953717 0 0 -1 0 0 0 1 0 0 -1</float_array>
          <technique_common>
            <accessor source="#b97122be-586e-92fe-1bea-41adff2f8b84-mesh-normals-array" count="6" stride="3">
              <param name="X" type="float"/>
              <param name="Y" type="float"/>
              <param name="Z" type="float"/>
            </accessor>
          </technique_common>
        </source>
        <source id="b97122be-586e-92fe-1bea-41adff2f8b84-mesh-map-0">
          <float_array id="b97122be-586e-92fe-1bea-41adff2f8b84-mesh-map-0-array" count="48">0.046875 0.984375 0.015625 0.984375 0.015625 0.953125 0.046875 0.953125 0.109375 0.984375 0.078125 0.984375 0.078125 0.953125 0.109375 0.953125 0.171875 0.984375 0.140625 0.984375 0.140625 0.953125 0.171875 0.953125 0.234375 0.984375 0.203125 0.984375 0.203125 0.953125 0.234375 0.953125 0.296875 0.984375 0.265625 0.984375 0.265625 0.953125 0.296875 0.953125 0.359375 0.984375 0.328125 0.984375 0.328125 0.953125 0.359375 0.953125</float_array>
          <technique_common>
            <accessor source="#b97122be-586e-92fe-1bea-41adff2f8b84-mesh-map-0-array" count="24" stride="2">
              <param name="S" type="float"/>
              <param name="T" type="float"/>
            </accessor>
          </technique_common>
        </source>
        <vertices id="b97122be-586e-92fe-1bea-41adff2f8b84-mesh-vertices">
          <input semantic="POSITION" source="#b97122be-586e-92fe-1bea-41adff2f8b84-mesh-positions"/>
        </vertices>
        <polylist material="Material_2-material" count="6">
          <input semantic="VERTEX" source="#b97122be-586e-92fe-1bea-41adff2f8b84-mesh-vertices" offset="0"/>
          <input semantic="NORMAL" source="#b97122be-586e-92fe-1bea-41adff2f8b84-mesh-normals" offset="1"/>
          <input semantic="TEXCOORD" source="#b97122be-586e-92fe-1bea-41adff2f8b84-mesh-map-0" offset="2" set="0"/>
          <vcount>4 4 4 4 4 4</vcount>
          <p>1 0 0 0 0 1 2 0 2 3 0 3 6 1 4 4 1 5 5 1 6 7 1 7 4 2 8 0 2 9 1 2 10 5 2 11 3 3 12 2 3 13 6 3 14 7 3 15 2 4 16 0 4 17 4 4 18 6 4 19 5 5 20 1 5 21 3 5 22 7 5 23</p>
        </polylist>
      </mesh>
    </geometry>
    <geometry id="a0fd2448-a326-40d3-68ff-00feb7d5b1da-mesh" name="cuboid">
      <mesh>
        <source id="a0fd2448-a326-40d3-68ff-00feb7d5b1da-mesh-positions">
          <float_array id="a0fd2448-a326-40d3-68ff-00feb7d5b1da-mesh-positions-array" count="24">0.815393 1.543706 0.0625 0.815393 1.543706 -0.0625 0.5 0.75 0.0625 0.5 0.75 -0.0625 0.934607 1.581294 0.0625 0.934607 1.581294 -0.0625 0.625 0.75 0.0625 0.625 0.75 -0.0625</float_array>
          <technique_common>
            <accessor source="#a0fd2448-a326-40d3-68ff-00feb7d5b1da-mesh-positions-array" count="8" stride="3">
              <param name="X" type="float"/>
              <param name="Y" type="float"/>
              <param name="Z" type="float"/>
            </accessor>
          </technique_common>
        </source>
        <source id="a0fd2448-a326-40d3-68ff-00feb7d5b1da-mesh-normals">
          <float_array id="a0fd2448-a326-40d3-68ff-00feb7d5b1da-mesh-normals-array" count="18">-0.929318 0.36928 0 0.937115 -0.349019 0 -0.300706 0.953717 0 0 -1 0 0 0 1 0 0 -1</float_array>
          <technique_common>
            <accessor source="#a0fd2448-a326-40d3-68ff-00feb7d5b1da-mesh-normals-array" count="6" stride="3">
              <param name="X" type="float"/>
              <param name="Y" type="float"/>
              <param name="Z" type="float"/>
            </accessor>
          </technique_common>
        </source>
        <source id="a0fd2448-a326-40d3-68ff-00feb7d5b1da-mesh-map-0">
          <float_array id="a0fd2448-a326-40d3-68ff-00feb7d5b1da-mesh-map-0-array" count="48">0 0.9375 0 1 0.125 1 0.125 0.9375 0 1 0.125 1 0.125 0.9375 0 0.9375 0.125 1 0.125 0.875 0 0.875 0 1 0 1 0.125 1 0.125 0.875 0 0.875 0 1 0.125 1 0.125 0.9375 0 0.9375 0 0.9375 0 1 0.125 1 0.125 0.9375</float_array>
          <technique_common>
            <accessor source="#a0fd2448-a326-40d3-68ff-00feb7d5b1da-mesh-map-0-array" count="24" stride="2">
              <param name="S" type="float"/>
              <param name="T" type="float"/>
            </accessor>
          </technique_common>
        </source>
        <vertices id="a0fd2448-a326-40d3-68ff-00feb7d5b1da-mesh-vertices">
          <input semantic="POSITION" source="#a0fd2448-a326-40d3-68ff-00feb7d5b1da-mesh-positions"/>
        </vertices>
        <polylist material="Material_2-material" count="6">
          <input semantic="VERTEX" source="#a0fd2448-a326-40d3-68ff-00feb7d5b1da-mesh-vertices" offset="0"/>
          <input semantic="NORMAL" source="#a0fd2448-a326-40d3-68ff-00feb7d5b1da-mesh-normals" offset="1"/>
          <input semantic="TEXCOORD" source="#a0fd2448-a326-40d3-68ff-00feb7d5b1da-mesh-map-0" offset="2" set="0"/>
          <vcount>4 4 4 4 4 4</vcount>
          <p>2 0 0 0 0 1 1 0 2 3 0 3 5 1 4 4 1 5 6 1 6 7 1 7 1 2 8 0 2 9 4 2 10 5 2 11 6 3 12 2 3 13 3 3 14 7 3 15 4 4 16 0 4 17 2 4 18 6 4 19 3 5 20 1 5 21 5 5 22 7 5 23</p>
        </polylist>
      </mesh>
    </geometry>
  </library_geometries>
  <library_visual_scenes>
    <visual_scene id="Scene" name="Scene">
      <node id="a0fd2448-a326-40d3-68ff-00feb7d5b1da" name="cuboid" type="NODE">
        <scale sid="scale">1 1 1</scale>
        <translate sid="location">0.0625 0 0</translate>
        <rotate sid="rotationX">1 0 0 0</rotate>
        <rotate sid="rotationY">0 1 0 0</rotate>
        <rotate sid="rotationZ">0 0 1 0</rotate>
        <instance_geometry url="#a0fd2448-a326-40d3-68ff-00feb7d5b1da-mesh" name="cuboid">
          <bind_material>
            <technique_common>
              <instance_material symbol="Material_2-material" target="#Material_2-material">
                <bind_vertex_input semantic="UVMap" input_semantic="TEXCOORD" input_set="0"/>
              </instance_material>
            </technique_common>
          </bind_material>
        </instance_geometry>
      </node>
      <node id="b97122be-586e-92fe-1bea-41adff2f8b84" name="cuboid" type="NODE">
        <scale sid="scale">1 1 1</scale>
        <translate sid="location">0.0625 0 0</translate>
        <rotate sid="rotationX">1 0 0 0</rotate>
        <rotate sid="rotationY">0 1 0 0</rotate>
        <rotate sid="rotationZ">0 0 1 0</rotate>
        <instance_geometry url="#b97122be-586e-92fe-1bea-41adff2f8b84-mesh" name="cuboid">
          <bind_material>
            <technique_common>
              <instance_material symbol="Material_2-material" target="#Material_2-material">
                <bind_vertex_input semantic="UVMap" input_semantic="TEXCOORD" input_set="0"/>
              </instance_material>
            </technique_common>
          </bind_material>
        </instance_geometry>
      </node>
      <node id="bc27cf77-7aad-d0b6-6ad9-ec5168cea3f8" name="cuboid" type="NODE">
        <scale sid="scale">1 1 1</scale>
        <translate sid="location">0.0625 0 0</translate>
        <rotate sid="rotationX">1 0 0 0</rotate>
        <rotate sid="rotationY">0 1 0 0</rotate>
        <rotate sid="rotationZ">0 0 1 0</rotate>
        <instance_geometry url="#bc27cf77-7aad-d0b6-6ad9-ec5168cea3f8-mesh" name="cuboid">
          <bind_material>
            <technique_common>
              <instance_material symbol="Material_0-material" target="#Material_0-material">
                <bind_vertex_input semantic="UVMap" input_semantic="TEXCOORD" input_set="0"/>
              </instance_material>
            </technique_common>
          </bind_material>
        </instance_geometry>
      </node>
      <node id="5017e89b-b372-f7f9-d97d-15e4ebdda6c9" name="cuboid" type="NODE">
        <scale sid="scale">1 1 1</scale>
        <translate sid="location">-0.46875 0.7333333333333333 0</translate>
        <rotate sid="rotationX">1 0 0 0</rotate>
        <rotate sid="rotationY">0 1 0 0</rotate>
        <rotate sid="rotationZ">0 0 1 0</rotate>
        <instance_geometry url="#5017e89b-b372-f7f9-d97d-15e4ebdda6c9-mesh" name="cuboid">
          <bind_material>
            <technique_common>
              <instance_material symbol="Material_1-material" target="#Material_1-material">
                <bind_vertex_input semantic="UVMap" input_semantic="TEXCOORD" input_set="0"/>
              </instance_material>
            </technique_common>
          </bind_material>
        </instance_geometry>
      </node>
    </visual_scene>
  </library_visual_scenes>
  <scene>
    <instance_visual_scene url="#Scene"/>
  </scene>
</COLLADA>
